<svg width="70" height="82" viewBox="0 0 70 82" fill="none" xmlns="http://www.w3.org/2000/svg">
<g id="ai-ios">
<mask id="mask0_62_766" style="mask-type:luminance" maskUnits="userSpaceOnUse" x="0" y="0" width="70" height="82">
<path id="Clip 2" fill-rule="evenodd" clip-rule="evenodd" d="M0 0H69.9928V82H0V0Z" fill="white"/>
</mask>
<g mask="url(#mask0_62_766)">
<path id="Fill 1" fill-rule="evenodd" clip-rule="evenodd" d="M58.4632 43.572C58.5824 55.972 69.8684 60.0983 69.9999 60.1558C69.8974 60.4397 68.1914 66.0373 64.0445 71.8203C60.4609 76.8178 56.7494 81.7871 50.8925 81.8895C45.1303 81.9924 43.2851 78.6344 36.701 78.6344C30.1207 78.6344 28.0616 81.7871 22.6157 81.9924C16.9688 82.198 12.6614 76.5999 9.0486 71.6229C1.65889 61.4384 -3.98011 42.8487 3.59868 30.3009C7.35945 24.0659 14.0875 20.1245 21.3828 20.0178C26.9356 19.9232 32.1798 23.5893 35.5663 23.5893C38.9653 23.5893 45.3316 19.1834 52.0268 19.8286C54.8261 19.9397 62.6966 20.9054 67.7477 27.9502C67.3449 28.2008 58.3564 33.1823 58.4632 43.572ZM34.8906 18.8977C34.2412 14.1837 36.6745 9.28446 39.4529 6.20605C42.5559 2.74137 47.7919 0.16426 52.1156 0C52.6705 4.80038 50.6404 9.62149 47.6441 13.0944C44.6396 16.5553 39.7156 19.2555 34.8906 18.8977Z" fill="black"/>
</g>
</g>
</svg>
