<svg width="32" height="32" viewBox="0 0 32 32" fill="none" xmlns="http://www.w3.org/2000/svg">
<path fill-rule="evenodd" clip-rule="evenodd" d="M16 32C24.8366 32 32 24.8366 32 16C32 7.16344 24.8366 0 16 0C7.16344 0 0 7.16344 0 16C0 24.8366 7.16344 32 16 32ZM16.5727 18.0438H13.2156L15.743 13.6817L15.9996 13.2369L17.7316 10.2605L18.0652 9.67889L18.7836 8.44725C19.1001 7.90841 19.1086 7.21562 18.7494 6.70671C18.4415 6.27051 18.001 6.09517 17.5648 6.09517C17.0516 6.09517 16.5513 6.36031 16.269 6.83928L16.0124 7.29259L15.7473 6.83928C15.465 6.36031 14.9604 6.09517 14.4515 6.09517C14.1949 6.09517 13.9383 6.15504 13.6988 6.29189C12.9889 6.70243 12.7452 7.62189 13.16 8.33179L14.2762 10.2605L9.76016 18.0523H6.82648C5.92841 18.0609 5.20995 18.8563 5.35108 19.7928C5.46227 20.5284 6.15079 21.0416 6.8949 21.0416H8.02818L11.4836 21.033H18.3816C18.5099 21.033 18.6382 20.9774 18.7152 20.8748C19.1086 20.3488 19.3994 19.532 18.4372 18.6895C17.9283 18.2405 17.2483 18.0438 16.5727 18.0438ZM25.107 18.0355H22.2332L18.3886 11.4027C18.3202 11.2872 18.1663 11.2487 18.0593 11.3257C17.5205 11.7149 17.204 12.258 17.0415 12.8567C16.7678 13.8659 16.9945 14.9479 17.5162 15.8545L18.3416 17.2872L18.7778 18.0484L20.5098 21.0334L20.6894 21.3327L22.353 24.2066C22.6352 24.6855 23.1313 24.9507 23.6402 24.9507C23.8968 24.9507 24.1619 24.8822 24.4014 24.7454C25.1113 24.3349 25.3551 23.424 24.9403 22.7055L23.9695 21.0248H25.1797C26.0778 21.0248 26.792 20.2123 26.6466 19.2757C26.5268 18.5445 25.8469 18.0355 25.107 18.0355ZM9.54908 21.4225C9.02307 21.2087 8.52699 21.2344 8.12928 21.3456C7.91118 21.4054 7.73156 21.5551 7.62037 21.7476L7.06443 22.6969C6.64533 23.4154 6.89337 24.3263 7.60327 24.7368C7.84275 24.8737 8.1079 24.9421 8.36449 24.9421C8.87767 24.9421 9.36947 24.677 9.64316 24.198L10.2761 23.1075C10.43 22.8381 10.46 22.5131 10.3445 22.2265C10.2162 21.9058 9.97673 21.5979 9.54908 21.4225Z" fill="white"/>
</svg>
