<svg width="60" height="60" viewBox="0 0 60 60" fill="none" xmlns="http://www.w3.org/2000/svg">
<path d="M2.3667 0H21.7098L35.5264 24.5969H18.9467L2.3667 0ZM30.0106 27.1912C20.8505 27.1912 13.4247 34.5357 13.4247 43.5956C13.4247 52.6555 20.8505 60 30.0106 60C39.1707 60 46.5965 52.6555 46.5965 43.5956C46.5965 34.5357 39.1707 27.1912 30.0106 27.1912ZM35.3793 52.475L29.9114 48.4674L24.3441 52.3244L26.3348 45.7014L21.072 41.4102L27.77 41.324L30.0854 34.8153L32.234 41.385L38.9273 41.6537L33.5575 45.7999L35.3793 52.475ZM35.5264 0H57.633L38.2898 24.5969L29.9998 8.78459L35.5264 0Z" fill="#FF7211"/>
</svg>
