<svg width="60" height="60" viewBox="0 0 60 60" fill="none" xmlns="http://www.w3.org/2000/svg">
<g clip-path="url(#clip0_67_1442)">
<path d="M29.9999 25.7133C22.3011 25.7133 16.0713 31.9462 16.0713 39.6429C16.0713 47.3354 22.3011 53.5715 29.9999 53.5715C37.6944 53.5715 43.9284 47.3354 43.9284 39.6429C43.9284 31.9462 37.6945 25.7133 29.9999 25.7133ZM29.9999 52.5C22.91 52.5 17.1427 46.7328 17.1427 39.6429C17.1427 32.553 22.91 26.7847 29.9999 26.7847C37.0897 26.7847 42.857 32.553 42.857 39.6429C42.857 46.7328 37.0897 52.5 29.9999 52.5Z" fill="#FF7211"/>
<path d="M36.4288 37.6632H31.9086L30.5087 33.365C30.3664 32.9213 29.634 32.9213 29.4917 33.365L28.0938 37.6632H23.5716C23.3393 37.6632 23.1343 37.8139 23.0631 38.0358C22.9898 38.2555 23.0694 38.4962 23.2577 38.6343L26.9135 41.2898L25.5178 45.5902C25.4466 45.812 25.5261 46.0526 25.7145 46.1887C25.8987 46.3248 26.1582 46.3248 26.3422 46.1887L30.0002 43.5332L33.6582 46.1887C33.7502 46.2557 33.8612 46.2912 33.9721 46.2912C34.083 46.2912 34.1939 46.2557 34.286 46.1887C34.4744 46.0526 34.5539 45.812 34.4827 45.5902L33.087 41.2898L36.7428 38.6343C36.9312 38.4962 37.0107 38.2555 36.9374 38.0358C36.8661 37.814 36.6611 37.6632 36.4288 37.6632Z" fill="#FF7211"/>
<path d="M50.3574 2.30507C50.3406 2.27261 50.3196 2.24336 50.3196 2.19311C50.3196 1.00971 49.3612 0.05025 48.1768 0.05025C48.0993 0.05025 48.0512 0.0313928 48.022 0L11.924 0C11.8948 0.0313928 11.8466 0.05025 11.7692 0.05025C10.6141 0.05025 9.68914 0.967821 9.64307 2.11039V15.8517L17.1828 23.834C12.5853 27.5662 9.64307 33.2582 9.64307 39.6429C9.64307 50.8845 18.7544 60 30.0002 60C41.2397 60 50.3574 50.8845 50.3574 39.6429C50.3574 33.2582 47.4131 27.5673 42.8155 23.8351L50.3574 15.8517V2.30507ZM36.9645 4.28571V20.535C34.7882 19.7409 32.4507 19.2857 30.0002 19.2857C27.5497 19.2857 25.2122 19.7409 23.0359 20.5339V4.28571H36.9645ZM13.9288 4.28571H19.8216V20.3875L13.9288 14.1483V4.28571ZM46.0716 39.6429C46.0716 48.5052 38.8625 55.7143 30.0002 55.7143C21.1379 55.7143 13.9288 48.5052 13.9288 39.6429C13.9288 30.7805 21.1379 23.5714 30.0002 23.5714C38.8625 23.5714 46.0716 30.7805 46.0716 39.6429ZM46.0716 14.1483L40.1788 20.3875V4.28571H46.0716V14.1483Z" fill="#FF7211"/>
</g>
<defs>
<clipPath id="clip0_67_1442">
<rect width="60" height="60" fill="white"/>
</clipPath>
</defs>
</svg>
