<svg width="106" height="106" viewBox="0 0 106 106" fill="none" xmlns="http://www.w3.org/2000/svg">
<path d="M53 105.5C81.9949 105.5 105.5 81.9949 105.5 53C105.5 24.0051 81.9949 0.5 53 0.5C24.0051 0.5 0.5 24.0051 0.5 53C0.5 81.9949 24.0051 105.5 53 105.5Z" fill="url(#paint0_linear_54_5861)"/>
<mask id="mask0_54_5861" style="mask-type:luminance" maskUnits="userSpaceOnUse" x="0" y="0" width="106" height="106">
<path d="M53 105.5C81.9949 105.5 105.5 81.9949 105.5 53C105.5 24.0051 81.9949 0.5 53 0.5C24.0051 0.5 0.5 24.0051 0.5 53C0.5 81.9949 24.0051 105.5 53 105.5Z" fill="white"/>
</mask>
<g mask="url(#mask0_54_5861)">
<g filter="url(#filter0_d_54_5861)">
<path d="M44.6218 74.7321C45.0695 75.2104 45.6922 75.4875 46.3477 75.5002C47.0027 75.5115 47.6348 75.2579 48.1 74.7959L86.2189 39.895C86.9158 39.2569 86.9803 38.1809 86.3647 37.4641L84.2596 35.0131C83.645 34.2976 82.5738 34.1979 81.8377 34.7877L48.2256 61.7208C47.2093 62.5677 45.4786 62.6169 44.4053 61.7945L30.3152 51.6717C29.5303 51.1078 28.4368 51.2869 27.8729 52.0719C27.8538 52.0985 27.8354 52.1257 27.8178 52.1534L26.0207 54.9773C25.5726 55.6813 25.6841 56.6039 26.287 57.181L44.6218 74.7321Z" fill="black"/>
</g>
<path d="M44.6218 74.7321C45.0695 75.2104 45.6922 75.4875 46.3477 75.5002C47.0027 75.5115 47.6348 75.2579 48.1 74.7959L86.2189 39.895C86.9158 39.2569 86.9803 38.1809 86.3647 37.4641L84.2596 35.0131C83.645 34.2976 82.5738 34.1979 81.8377 34.7877L48.2256 61.7208C47.2093 62.5677 45.4786 62.6169 44.4053 61.7945L30.3152 51.6717C29.5303 51.1078 28.4368 51.2869 27.8729 52.0719C27.8538 52.0985 27.8354 52.1257 27.8178 52.1534L26.0207 54.9773C25.5726 55.6813 25.6841 56.6039 26.287 57.181L44.6218 74.7321Z" fill="url(#paint1_linear_54_5861)"/>
</g>
<mask id="mask1_54_5861" style="mask-type:luminance" maskUnits="userSpaceOnUse" x="0" y="0" width="106" height="106">
<path d="M53 105.5C81.9949 105.5 105.5 81.9949 105.5 53C105.5 24.0051 81.9949 0.5 53 0.5C24.0051 0.5 0.5 24.0051 0.5 53C0.5 81.9949 24.0051 105.5 53 105.5Z" fill="white"/>
</mask>
<g mask="url(#mask1_54_5861)">
<path opacity="0.287458" fill-rule="evenodd" clip-rule="evenodd" d="M56.5008 89.2794C59.1529 91.5048 59.4988 95.4588 57.2735 98.1109L38.1337 120.921C35.9083 123.573 31.9544 123.919 29.3023 121.693C26.6501 119.468 26.3042 115.514 28.5296 112.862L47.6693 90.0521C49.8947 87.4 53.8487 87.054 56.5008 89.2794Z" fill="url(#paint2_linear_54_5861)"/>
</g>
<mask id="mask2_54_5861" style="mask-type:luminance" maskUnits="userSpaceOnUse" x="0" y="0" width="106" height="106">
<path d="M53 105.5C81.9949 105.5 105.5 81.9949 105.5 53C105.5 24.0051 81.9949 0.5 53 0.5C24.0051 0.5 0.5 24.0051 0.5 53C0.5 81.9949 24.0051 105.5 53 105.5Z" fill="white"/>
</mask>
<g mask="url(#mask2_54_5861)">
<path opacity="0.492378" fill-rule="evenodd" clip-rule="evenodd" d="M97.5371 78.0297C100.184 80.1989 100.572 84.1032 98.4024 86.7502C98.3872 86.7688 98.3718 86.7873 98.3564 86.8057L74.1809 115.617C71.9478 118.278 67.9893 118.648 65.3023 116.446C62.6552 114.277 62.2678 110.372 64.437 107.725C64.4522 107.707 64.4676 107.688 64.483 107.67L88.6585 78.8586C90.8916 76.1973 94.8501 75.8278 97.5371 78.0297Z" fill="url(#paint3_linear_54_5861)"/>
</g>
<path opacity="0.189983" fill-rule="evenodd" clip-rule="evenodd" d="M63.65 26.6C62.9429 25.8929 61.9787 25.4429 60.7574 25.25C61.9787 25.0571 62.9429 24.6071 63.65 23.9C64.3571 23.1929 64.8071 22.2286 65 21.0073C65.1929 22.2286 65.6429 23.1929 66.35 23.9C67.0571 24.6071 68.0213 25.0571 69.2426 25.25C68.0213 25.4429 67.0571 25.8929 66.35 26.6C65.6429 27.3071 65.1929 28.2713 65 29.4926C64.8071 28.2713 64.3571 27.3071 63.65 26.6Z" fill="white"/>
<path opacity="0.5" fill-rule="evenodd" clip-rule="evenodd" d="M23.6427 29.3426C22.9356 28.6355 21.9714 28.1855 20.75 27.9926C21.9714 27.7997 22.9356 27.3497 23.6427 26.6426C24.3498 25.9355 24.7998 24.9713 24.9927 23.75C25.1856 24.9713 25.6356 25.9355 26.3427 26.6426C27.0498 27.3497 28.014 27.7997 29.2353 27.9926C28.014 28.1855 27.0498 28.6355 26.3427 29.3426C25.6356 30.0497 25.1856 31.014 24.9927 32.2353C24.7998 31.014 24.3498 30.0497 23.6427 29.3426Z" fill="white"/>
<path opacity="0.291002" fill-rule="evenodd" clip-rule="evenodd" d="M32.3227 79.7837L29.8032 78.5532L32.3227 77.3227L33.5532 74.8032L34.7837 77.3227L37.3032 78.5532L34.7837 79.7837L33.5532 82.3032L32.3227 79.7837Z" fill="white"/>
<defs>
<filter id="filter0_d_54_5861" x="11.7471" y="25.4033" width="89.04" height="69.0972" filterUnits="userSpaceOnUse" color-interpolation-filters="sRGB">
<feFlood flood-opacity="0" result="BackgroundImageFix"/>
<feColorMatrix in="SourceAlpha" type="matrix" values="0 0 0 0 0 0 0 0 0 0 0 0 0 0 0 0 0 0 127 0" result="hardAlpha"/>
<feOffset dy="5"/>
<feGaussianBlur stdDeviation="7"/>
<feColorMatrix type="matrix" values="0 0 0 0 0.056004 0 0 0 0 0.806229 0 0 0 0 0.401562 0 0 0 1 0"/>
<feBlend mode="normal" in2="BackgroundImageFix" result="effect1_dropShadow_54_5861"/>
<feBlend mode="normal" in="SourceGraphic" in2="effect1_dropShadow_54_5861" result="shape"/>
</filter>
<linearGradient id="paint0_linear_54_5861" x1="7761.83" y1="10500.5" x2="1351.67" y2="1532.73" gradientUnits="userSpaceOnUse">
<stop offset="0.0005395" stop-color="#18CC18"/>
<stop offset="1" stop-color="#60CC18"/>
</linearGradient>
<linearGradient id="paint1_linear_54_5861" x1="3077.75" y1="4703.32" x2="2892.01" y2="1635.72" gradientUnits="userSpaceOnUse">
<stop stop-color="#4FFF9B"/>
<stop offset="0.403883" stop-color="#ACFFD0"/>
<stop offset="1" stop-color="white"/>
</linearGradient>
<linearGradient id="paint2_linear_54_5861" x1="531.906" y1="488.192" x2="-1390.76" y2="2779.54" gradientUnits="userSpaceOnUse">
<stop stop-color="white" stop-opacity="0"/>
<stop offset="1" stop-color="white"/>
</linearGradient>
<linearGradient id="paint3_linear_54_5861" x1="572.942" y1="476.942" x2="-2125.73" y2="3693.1" gradientUnits="userSpaceOnUse">
<stop stop-color="white" stop-opacity="0"/>
<stop offset="1" stop-color="white"/>
</linearGradient>
</defs>
</svg>
