<svg width="64" height="64" viewBox="0 0 64 64" fill="none" xmlns="http://www.w3.org/2000/svg">
<g clip-path="url(#clip0_62_489)">
<path d="M22 41H38L43.4125 51.0518C44.13 52.3843 43.1649 54 41.6516 54H18.3484C16.8351 54 15.87 52.3843 16.5875 51.0518L22 41Z" fill="url(#paint0_linear_62_489)"/>
<rect x="1.5" y="2.5" width="57" height="39" rx="4.5" fill="url(#paint1_linear_62_489)" stroke="#229BFF" stroke-width="3"/>
<rect x="18" y="19.7437" width="4" height="24" rx="2" transform="rotate(-90 18 19.7437)" fill="white"/>
<rect x="19.25" y="20.4639" width="4" height="14" rx="2" transform="rotate(-120 19.25 20.4639)" fill="white" fill-opacity="0.7"/>
<rect x="30.6001" y="33.4937" width="4" height="14" rx="2" transform="rotate(-120 30.6001 33.4937)" fill="white" fill-opacity="0.7"/>
<rect width="4" height="24" rx="2" transform="matrix(0 -1 -1 0 42 27.7437)" fill="white"/>
<path d="M39 34C39 31.2386 41.2386 29 44 29H64V65H43C40.7909 65 39 63.2091 39 61V34Z" fill="white"/>
<rect x="43.5" y="33.5" width="19" height="28" rx="2.5" fill="url(#paint2_linear_62_489)" stroke="#229BFF" stroke-width="3"/>
</g>
<defs>
<linearGradient id="paint0_linear_62_489" x1="30" y1="41" x2="30" y2="54" gradientUnits="userSpaceOnUse">
<stop stop-color="#0096FA"/>
<stop offset="1" stop-color="#3783FD"/>
</linearGradient>
<linearGradient id="paint1_linear_62_489" x1="30.5" y1="0.479038" x2="30.5" y2="42.8506" gradientUnits="userSpaceOnUse">
<stop stop-color="#00AFFA"/>
<stop offset="1" stop-color="#3783FD"/>
</linearGradient>
<linearGradient id="paint2_linear_62_489" x1="53.1833" y1="31.6155" x2="53.1833" y2="62.8897" gradientUnits="userSpaceOnUse">
<stop stop-color="#00AFFA"/>
<stop offset="1" stop-color="#3783FD"/>
</linearGradient>
<clipPath id="clip0_62_489">
<rect width="64" height="64" fill="white"/>
</clipPath>
</defs>
</svg>
