<svg width="64" height="64" viewBox="0 0 64 64" fill="none" xmlns="http://www.w3.org/2000/svg">
<g clip-path="url(#clip0_62_499)">
<path d="M19.4033 4.85864C12.3639 1.5266 6.56546 0.891574 3.71011 3.74692C-0.695032 8.15206 3.20742 19.5623 12.5042 31.7269M58.9158 44.623C62.0543 51.4491 62.5985 57.0528 59.8073 59.8441C57.0271 62.6242 51.4568 62.0954 44.6676 58.9899" stroke="#00AFFA" stroke-width="3.5"/>
<circle cx="32" cy="32" r="29.5" fill="url(#paint0_linear_62_499)" stroke="#229BFF" stroke-width="3"/>
<path d="M3.71011 3.74692C-0.695032 8.15206 3.26033 19.6152 12.6313 31.8539" stroke="#00AFFA" stroke-width="3.5"/>
<rect x="5.42578" y="29.0312" width="7" height="3.5" fill="#00AFFA"/>
<path d="M10.9258 23.5312H14.4258V32.5312H10.9258V23.5312Z" fill="#00AFFA"/>
<path d="M30.7626 13.2374C31.446 12.554 32.554 12.554 33.2374 13.2374C33.9209 13.9209 33.9209 15.0289 33.2374 15.7123L25.471 23.4788L22.9961 21.0039L30.7626 13.2374Z" fill="white"/>
<path d="M33.2374 13.2374C32.554 12.554 31.446 12.554 30.7626 13.2374C30.0791 13.9209 30.0791 15.0289 30.7626 15.7123L38.5212 23.471L40.9961 20.9961L33.2374 13.2374Z" fill="white"/>
<path d="M23 21L26.5 21V44.25C26.5 45.2165 25.7165 46 24.75 46C23.7835 46 23 45.2165 23 44.25V21Z" fill="white"/>
<path d="M30.25 39L33.75 39V50.25C33.75 51.2165 32.9665 52 32 52C31.0335 52 30.25 51.2165 30.25 50.25V39Z" fill="white"/>
<path d="M37.5 21L41 21V44.25C41 45.2165 40.2165 46 39.25 46C38.2835 46 37.5 45.2165 37.5 44.25V21Z" fill="white"/>
<path d="M40.627 29L38.0259 31.342L47.0027 41.3116C47.6494 42.0299 48.7559 42.0878 49.4741 41.4411C50.1924 40.7944 50.2504 39.6879 49.6037 38.9697L40.627 29Z" fill="white"/>
<path d="M23.3984 29L25.9994 31.342L17.0227 41.3116C16.376 42.0299 15.2695 42.0878 14.5512 41.4411C13.833 40.7944 13.775 39.6879 14.4217 38.9697L23.3984 29Z" fill="white"/>
<path d="M38 38.5039V42.0039H48.25C49.2165 42.0039 50 41.2204 50 40.2539C50 39.2874 49.2165 38.5039 48.25 38.5039H38Z" fill="white"/>
<path d="M26 38.5V42H15.75C14.7835 42 14 41.2165 14 40.25C14 39.2835 14.7835 38.5 15.75 38.5H26Z" fill="white"/>
</g>
<defs>
<linearGradient id="paint0_linear_62_499" x1="32.5167" y1="0.230961" x2="32.5167" y2="62.7795" gradientUnits="userSpaceOnUse">
<stop stop-color="#00AFFA" stop-opacity="0.96"/>
<stop offset="1" stop-color="#3783FD"/>
</linearGradient>
<clipPath id="clip0_62_499">
<rect width="64" height="64" fill="white"/>
</clipPath>
</defs>
</svg>
