<svg width="64" height="64" viewBox="0 0 64 64" fill="none" xmlns="http://www.w3.org/2000/svg">
<rect x="3.5" y="16.5" width="57" height="44" rx="6.5" fill="url(#paint0_linear_61_453)" stroke="#229BFF" stroke-width="3"/>
<path d="M23.2678 31.6189C24.1887 30.4971 25.2921 29.5732 26.5508 28.8763C27.8425 28.1588 29.2421 27.7074 30.7172 27.5258C32.1922 27.3443 33.6619 27.4495 35.0878 27.8368C36.5626 28.2371 37.9251 28.9207 39.1405 29.8728C40.3559 30.8249 41.3458 31.9841 42.085 33.3181C42.7998 34.6077 43.2539 36.0095 43.4308 37.4851C43.4868 37.9465 43.5149 38.4114 43.5145 38.875L40.9786 38.8709C40.7561 38.8695 40.6312 39.126 40.7683 39.3009L44.4804 44.0223C44.5865 44.1561 44.7924 44.1571 44.8968 44.0238L48.6217 39.3118C48.7589 39.1367 48.6354 38.8797 48.4135 38.883L46.0364 38.8809C46.0411 34.7343 44.207 30.6361 40.694 27.8842C34.7058 23.1933 26.0743 24.1756 21.2895 30.0523C21.1947 30.1679 21.213 30.3383 21.3307 30.4304L22.8989 31.659C23.014 31.7491 23.1771 31.7292 23.2678 31.6189ZM42.8685 47.3022L41.3002 46.0737C41.1852 45.9836 41.0221 46.0034 40.9314 46.1138C40.0105 47.2355 38.9071 48.1595 37.6484 48.8564C36.3567 49.5738 34.955 50.0279 33.482 50.2069C32.009 50.3858 30.5373 50.2831 29.1114 49.8958C27.6366 49.4956 26.2741 48.812 25.0586 47.8599C23.8432 46.9078 22.8533 45.7485 22.1116 44.4125C21.3967 43.1229 20.9427 41.7212 20.7658 40.2455C20.7097 39.7841 20.6816 39.3192 20.682 38.8556L23.2179 38.8597C23.4404 38.8611 23.5653 38.6047 23.4282 38.4297L19.7162 33.7083C19.6101 33.5745 19.4042 33.5735 19.2997 33.7068L15.5754 38.4235C15.4382 38.5986 15.5617 38.8556 15.7836 38.8523L18.1607 38.8544C18.158 42.9984 19.9921 47.0966 23.5051 49.8485C29.496 54.5414 38.1269 53.5544 42.9097 47.6804C43.0045 47.5648 42.9861 47.3944 42.8685 47.3022Z" fill="white" stroke="white" stroke-width="1.3"/>
<rect x="11" y="8" width="42" height="4" rx="2" fill="#229BFF"/>
<rect x="17" y="1" width="30" height="4" rx="2" fill="#229BFF"/>
<defs>
<linearGradient id="paint0_linear_61_453" x1="32.5" y1="14.417" x2="32.5" y2="61.8328" gradientUnits="userSpaceOnUse">
<stop stop-color="#00AFFA"/>
<stop offset="1" stop-color="#3783FD"/>
</linearGradient>
</defs>
</svg>
