<svg width="64" height="64" viewBox="0 0 64 64" fill="none" xmlns="http://www.w3.org/2000/svg">
<g clip-path="url(#clip0_61_419)">
<path d="M54.3996 38.7192C54.3996 46.8952 46.8822 54.3544 32.0466 60.8952C17.1506 53.6308 9.59961 46.1716 9.59961 38.7192V11.7675C16.9266 11.2926 24.4105 8.49933 31.8943 3.44141C37.2658 7.53613 44.8214 10.2667 54.3996 11.5771V38.7192Z" fill="url(#paint0_linear_61_419)"/>
<path d="M31.3892 62.2434L32.0148 62.5485L32.6518 62.2677C40.1571 58.9587 45.9283 55.369 49.8429 51.4852C53.7742 47.5849 55.8996 43.3142 55.8996 38.7192V11.5771V10.2683L54.6029 10.0909C45.1771 8.80138 37.899 6.13268 32.8037 2.24849L31.9469 1.59539L31.0544 2.19862C23.741 7.14135 16.5092 9.81651 9.50259 10.2706L8.09961 10.3616V11.7675V38.7192C8.09961 42.9894 10.269 47.0782 14.1829 50.9448C18.0953 54.8098 23.8678 58.5755 31.3892 62.2434Z" fill="url(#paint1_linear_61_419)" stroke="#22AAFF" stroke-width="3"/>
<path d="M21.3444 28.9669C20.9508 28.5217 20.3965 28.251 19.8033 28.2144C19.2102 28.1779 18.6268 28.3785 18.1815 28.772C17.7363 29.1656 17.4656 29.72 17.429 30.3131C17.3925 30.9063 17.5931 31.4897 17.9867 31.9349L26.5121 41.5826C27.3947 42.5794 28.6244 43.0924 29.8654 43.0924C30.5308 43.0918 31.1878 42.9438 31.7893 42.6592C32.3908 42.3745 32.9218 41.9602 33.3441 41.446L47.1761 24.4556C47.3619 24.2274 47.5009 23.965 47.5852 23.6831C47.6695 23.4013 47.6975 23.1056 47.6676 22.8129C47.6376 22.5203 47.5503 22.2364 47.4106 21.9774C47.271 21.7185 47.0817 21.4896 46.8535 21.3039C46.6254 21.1181 46.3629 20.9791 46.0811 20.8948C45.7992 20.8105 45.5036 20.7825 45.2109 20.8124C44.9182 20.8424 44.6343 20.9297 44.3754 21.0693C44.1165 21.209 43.8876 21.3983 43.7019 21.6264L29.8699 38.6146L21.3444 28.9669Z" fill="white"/>
</g>
<defs>
<linearGradient id="paint0_linear_61_419" x1="31.9996" y1="3.44141" x2="31.9996" y2="60.8952" gradientUnits="userSpaceOnUse">
<stop stop-color="#77BCFD"/>
<stop offset="1" stop-color="#1D8DF0"/>
</linearGradient>
<linearGradient id="paint1_linear_61_419" x1="32.3729" y1="2.72876" x2="32.3729" y2="60.6908" gradientUnits="userSpaceOnUse">
<stop stop-color="#00AFFA"/>
<stop offset="1" stop-color="#3783FD"/>
</linearGradient>
<clipPath id="clip0_61_419">
<rect width="64" height="64" fill="white"/>
</clipPath>
</defs>
</svg>
