<svg width="48" height="48" viewBox="0 0 48 48" fill="none" xmlns="http://www.w3.org/2000/svg">
<path fill-rule="evenodd" clip-rule="evenodd" d="M6.3681 20.3999H4.5C2.84315 20.3999 1.5 21.7431 1.5 23.3999V33.3999C1.5 35.0568 2.84315 36.3999 4.5 36.3999H11.22C12.8769 36.3999 14.22 35.0568 14.22 33.3999V23.3999C14.22 21.7431 12.8769 20.3999 11.22 20.3999H9.86852C10.0003 12.7088 16.2762 6.51453 23.9988 6.51453C31.7214 6.51453 37.9972 12.7088 38.129 20.3999H36.6C34.9431 20.3999 33.6 21.7431 33.6 23.3999V33.3999C33.6 35.0568 34.9431 36.3999 36.6 36.3999H38.6401C36.9154 38.8618 34.4522 40.7677 31.5739 41.7968C30.9298 41.2153 30.0133 40.9619 29.1127 41.2032L26.5558 41.8883C25.1437 42.2666 24.3057 43.7181 24.6841 45.1302C25.0624 46.5424 26.5139 47.3804 27.926 47.002L30.4829 46.3169C31.5327 46.0356 32.2652 45.1612 32.4165 44.1508C36.3285 42.7521 39.5815 39.9723 41.5903 36.3999H43.32C44.9769 36.3999 46.32 35.0568 46.32 33.3999V23.3999C46.32 21.7431 44.9769 20.3999 43.32 20.3999H41.6294C41.4973 10.7757 33.6544 3.01453 23.9988 3.01453C14.3431 3.01453 6.50021 10.7757 6.3681 20.3999ZM5 32.8999V23.8999H10.72V32.8999H5ZM37.1 23.8999V32.8999H42.82V23.8999H37.1Z" fill="#999999"/>
</svg>
