<svg width="220" height="106" viewBox="0 0 220 106" fill="none" xmlns="http://www.w3.org/2000/svg">
<path d="M69.3231 1.02734C72.3674 1.02734 74.8352 3.49937 74.8352 6.54876C74.8352 6.75887 74.8235 6.96623 74.8007 7.17024L74.8007 17.3988C76.265 16.0838 77.9186 15.0722 79.7616 14.3641C81.6046 13.656 83.6369 13.2767 85.8586 13.2261H86.1615C89.7465 13.2261 93.0285 14.1365 96.0075 15.9573C98.9866 17.7781 101.347 20.2817 103.089 23.4681C104.831 26.6545 105.702 30.1697 105.702 34.0136C105.702 37.7564 104.856 41.2083 103.165 44.3694C101.473 47.5305 99.1128 50.0468 96.0833 51.9181C93.0537 53.7895 89.6455 54.7252 85.8586 54.7252C83.6369 54.7252 81.6046 54.3838 79.7616 53.701C77.9186 53.0182 76.265 52.0446 74.8007 50.7801L74.5067 50.4947C73.7384 52.6175 71.7076 54.1341 69.3231 54.1341C66.2789 54.1341 63.811 51.6621 63.811 48.6127C63.811 48.5151 63.8136 48.4181 63.8186 48.3218V6.83963C63.8136 6.74331 63.811 6.64633 63.811 6.54876C63.811 3.49937 66.2789 1.02734 69.3231 1.02734ZM84.7982 23.1646C82.8795 23.1646 81.0997 23.6704 79.4587 24.682C77.8177 25.6935 76.5049 27.0339 75.5203 28.7029C74.5356 30.372 74.0433 32.1422 74.0433 34.0136C74.0433 35.885 74.5483 37.6552 75.5581 39.3243C76.5175 40.9933 77.8177 42.321 79.4587 43.3073C81.0997 44.2935 82.8795 44.7867 84.7982 44.7867C86.7169 44.7867 88.4968 44.2935 90.1378 43.3073C91.7788 42.321 93.079 40.9933 94.0383 39.3243C94.9977 37.6552 95.4774 35.885 95.4774 34.0136C95.4774 32.0916 94.9977 30.3088 94.0383 28.665C93.079 27.0212 91.7788 25.6935 90.1378 24.682C88.4968 23.6704 86.7169 23.1646 84.7982 23.1646Z" fill="white"/>
<path d="M142.531 12.2388C145.528 12.2388 147.959 14.673 147.959 17.6759C147.959 18.6099 147.724 19.4888 147.309 20.2566L128.086 68.8888C127.406 71.033 125.402 72.5866 123.036 72.5866C120.111 72.5866 117.739 70.2108 117.739 67.2801C117.739 66.4508 117.929 65.666 118.267 64.9668L122.628 53.8907L108.609 19.9427L108.618 19.939C108.288 19.24 108.103 18.4585 108.103 17.6337C108.103 14.6542 110.515 12.2388 113.489 12.2388C116.018 12.2388 118.141 13.9853 118.719 16.3401L128.233 40.9933L137.277 16.3042C137.884 13.9654 140.006 12.2388 142.531 12.2388Z" fill="white"/>
<path d="M165.088 15.199H172.453C175.051 15.199 177.157 17.305 177.157 19.9028C177.157 22.5006 175.051 24.6065 172.453 24.6065H165.088V40.2351C165.088 41.9547 165.492 43.1939 166.3 43.9525C167.108 44.7112 168.421 45.0905 170.239 45.0905H172.643C175.136 45.0905 177.157 47.1116 177.157 49.6046C177.157 52.0977 175.136 54.1187 172.643 54.1187H169.481C159.534 54.1187 154.561 49.6678 154.561 40.7661V11.1393C154.561 8.23219 156.917 5.87549 159.825 5.87549C162.732 5.87549 165.088 8.23219 165.088 11.1393V15.199Z" fill="white"/>
<path d="M200.687 13.9785C203.64 13.9785 206.67 14.6613 209.624 16.1028C212.577 17.5443 215.077 19.8203 217.046 22.8549C218.991 25.8521 219.975 29.5894 219.999 33.9936L220 34.1591C220 36.4636 218.132 38.3318 215.827 38.3317H191.295C191.901 40.7595 193.188 42.5803 195.082 43.87C196.975 45.1598 199.172 45.7667 201.823 45.7667C204.019 45.7667 205.761 45.5391 206.973 45.1598C207.988 44.8208 209.305 44.2396 210.871 43.4161C211.564 42.9361 212.404 42.6551 213.31 42.6551C215.68 42.6551 217.601 44.5799 217.601 46.9542C217.601 48.2731 217.009 49.4533 216.075 50.2419C216.077 50.2444 216.078 50.247 216.08 50.2496L215.978 50.3216C215.831 50.4384 215.677 50.5457 215.516 50.6427C213.555 51.9921 211.995 52.8957 210.835 53.3534C208.26 54.4155 205.155 54.9466 201.444 54.9466C198.036 54.9466 194.703 54.1879 191.522 52.5947C188.265 51.0774 185.69 48.8014 183.645 45.6908C181.6 42.5803 180.54 38.9387 180.54 34.6143C180.54 30.2899 181.6 26.4965 183.645 23.386C185.69 20.2755 188.265 17.9236 191.371 16.3304C194.476 14.7372 197.581 13.9785 200.687 13.9785ZM200.687 23.2343C198.642 23.2343 196.748 23.8412 195.006 25.1309C193.264 26.4207 192.052 28.2415 191.371 30.5933H209.927C209.548 28.2415 208.412 26.4207 206.594 25.1309C204.776 23.8412 202.807 23.2343 200.687 23.2343Z" fill="white"/>
<path d="M27.7266 0C33.2513 0 38.1951 1.44612 42.558 4.33835C43.6809 5.08272 44.7328 5.89379 45.7137 6.77157L45.7087 6.77704C46.9399 7.79987 47.7241 9.34384 47.7241 11.0713C47.7241 14.1509 45.2317 16.6475 42.1573 16.6475C40.5833 16.6475 39.1619 15.9931 38.1494 14.9412C37.4395 14.3047 36.6206 13.7 35.7813 13.2087C33.3545 11.7884 30.6697 11.0783 27.7266 11.0783C24.6803 11.0783 21.9309 11.8143 19.4783 13.2862C17.0258 14.7581 15.1025 16.7724 13.7084 19.3289C12.3143 21.8854 11.6173 24.6873 11.6173 27.7345C11.6173 30.7816 12.3143 33.5706 13.7084 36.1013C15.1025 38.632 17.0258 40.6333 19.4783 42.1053C21.9309 43.5772 24.6803 44.3132 27.7266 44.3132C29.8952 44.3132 31.9605 43.9387 33.9225 43.1898C35.8845 42.441 37.6271 41.2918 39.1503 39.7424C40.6734 38.193 41.8481 36.3079 42.6742 34.0871C43.5003 31.8662 43.2072 30.2162 43.2072 28.1811C44.5169 28.2365 48.1083 28.4233 53.9817 28.7416C53.9817 33.8546 52.8329 38.4383 50.5352 42.4926C48.2376 46.5469 45.088 49.7103 41.0865 51.9828C37.085 54.2552 32.6317 55.3915 27.7266 55.3915C22.7183 55.3915 18.0972 54.1519 13.8633 51.6729C9.62945 49.1938 6.26043 45.8368 3.75626 41.6017C1.25209 37.3666 0 32.7442 0 27.7345C0 22.7247 1.25209 18.1023 3.75626 13.8672C6.26043 9.63218 9.62945 6.26221 13.8633 3.75732C18.0972 1.25244 22.7183 0 27.7266 0Z" fill="white"/>
<path fill-rule="evenodd" clip-rule="evenodd" d="M49.4503 19.894C53.6638 19.894 57.0795 23.3096 57.0795 27.5229C57.0795 31.7362 53.6638 35.1517 49.4503 35.1517C46.6226 35.1517 44.1542 33.6133 42.8364 31.3279L42.8345 31.328L42.8069 31.2763C42.786 31.2394 42.7654 31.2023 42.7451 31.165C41.89 29.6659 40.2767 28.6555 38.4273 28.6555C36.587 28.6555 34.9804 29.6554 34.1218 31.1419C34.0957 31.1908 34.0688 31.2393 34.0413 31.2876C34.0338 31.3009 34.0266 31.3145 34.0195 31.3281C32.7003 33.6134 30.232 35.1517 27.4043 35.1517C23.1908 35.1517 19.7751 31.7362 19.7751 27.5229C19.7751 23.3096 23.1908 19.894 27.4043 19.894C30.1752 19.894 32.601 21.3711 33.9374 23.5809C33.9645 23.6258 34.0578 23.7875 34.0901 23.8452C34.9399 25.3632 36.5638 26.3892 38.4273 26.3892C40.2872 26.3892 41.9085 25.3672 42.76 23.8541C42.8095 23.7614 42.863 23.6707 42.9173 23.5809C44.2536 21.3711 46.6795 19.894 49.4503 19.894Z" fill="#467DFF"/>
<path d="M16.4383 95.1987C14.4337 95.2634 13.4637 94.2285 13.5284 92.094V85.7508C13.5284 84.9137 14.207 84.2351 15.0441 84.2351H24.9739C27.0155 84.2903 29.1512 84.0864 31.3811 83.6235C31.4876 84.1372 31.8185 85.6138 31.9502 86.1311C30.1836 86.5422 28.0522 86.7187 25.5559 86.6607H17.0203V91.3178C17.0203 92.288 17.5052 92.7731 18.4752 92.7731H21.6761V90.153C21.6761 89.0816 22.5446 88.213 23.616 88.213C24.6874 88.213 25.5559 89.0816 25.5559 90.153V92.7731H32.1998C32.8696 92.7731 33.4126 93.3161 33.4126 93.9859C33.4126 94.6557 32.8696 95.1987 32.1998 95.1987H25.5559V101.796C25.6206 104.254 24.5536 105.451 22.355 105.386C21.4384 105.386 20.7508 105.386 20.2925 105.386C20.2923 104.902 20.3093 103.399 20.3004 102.864C20.369 102.864 20.4719 102.864 20.6091 102.864C21.3851 102.864 21.7407 102.508 21.6761 101.796V95.1987H16.4383ZM12.387 102.196C14.0672 100.983 15.2231 99.3441 15.8544 97.281C16.5323 97.5164 18.0853 98.0783 18.9922 98.4132C17.9929 100.976 16.1468 102.83 13.4538 103.975C13.3332 103.801 12.4463 102.303 12.387 102.196ZM32.9564 103.971C30.3288 102.804 28.5322 100.976 27.5668 98.4865C28.3601 98.2182 29.8815 97.7029 30.8066 97.4128C31.3826 99.4653 32.4397 101.061 33.9778 102.199C33.8718 102.379 33.107 103.726 32.9564 103.971Z" fill="white"/>
<path d="M17.4263 99.5105C18.3473 99.5105 19.094 98.7638 19.094 97.8428C19.094 96.9217 18.3473 96.1751 17.4263 96.1751C16.5052 96.1751 15.7586 96.9217 15.7586 97.8428C15.7586 98.7638 16.5052 99.5105 17.4263 99.5105ZM20.3179 105.387C21.0146 105.387 21.5793 104.822 21.5793 104.125C21.5793 103.428 21.0146 102.864 20.3179 102.864C19.6213 102.864 19.0565 103.428 19.0565 104.125C19.0565 104.822 19.6213 105.387 20.3179 105.387ZM31.6164 86.1733C32.3263 86.1733 32.9018 85.5978 32.9018 84.8879C32.9018 84.178 32.3263 83.6025 31.6164 83.6025C30.9065 83.6025 30.3311 84.178 30.3311 84.8879C30.3311 85.5978 30.9065 86.1733 31.6164 86.1733ZM12.9973 104.079C13.572 104.079 14.0379 103.613 14.0379 103.038C14.0379 102.464 13.572 101.998 12.9973 101.998C12.4227 101.998 11.9568 102.464 11.9568 103.038C11.9568 103.613 12.4227 104.079 12.9973 104.079ZM33.3644 104.055C33.9327 104.055 34.3934 103.595 34.3934 103.026C34.3934 102.458 33.9327 101.997 33.3644 101.997C32.7961 101.997 32.3354 102.458 32.3354 103.026C32.3354 103.595 32.7961 104.055 33.3644 104.055ZM29.1632 99.5885C30.1058 99.5885 30.8699 98.8244 30.8699 97.8818C30.8699 96.9392 30.1058 96.1751 29.1632 96.1751C28.2206 96.1751 27.4564 96.9392 27.4564 97.8818C27.4564 98.8244 28.2206 99.5885 29.1632 99.5885Z" fill="white"/>
<path d="M81.0031 93.9497C79.1842 93.0323 78.0298 91.7024 77.5399 89.96V92.4345C77.5399 93.2648 76.8668 93.9379 76.0364 93.9379C75.2061 93.9379 74.533 93.2648 74.533 92.4345V90.0569C74.533 90.0034 74.4896 89.96 74.436 89.96C73.9471 91.6445 72.8192 92.9638 71.0524 93.918C70.851 93.6369 70.1889 92.6318 70.1168 92.4702C71.0715 91.7216 71.7029 90.8849 72.0111 89.96H71.2355C70.5925 89.96 70.0712 89.4387 70.0712 88.7957C70.0712 88.1527 70.5925 87.6314 71.2355 87.6314H74.533V84.5747C74.533 83.7444 75.2061 83.0713 76.0364 83.0713C76.8668 83.0713 77.5399 83.7444 77.5399 84.5747V87.6314H80.659C81.31 87.6314 81.8379 88.1592 81.8379 88.8103V89.1838C82.9087 88.0562 83.6128 86.3635 83.9901 84.1057C84.5278 84.1147 87.1263 84.1547 87.0212 84.6394C86.9323 85.0494 86.8434 85.4323 86.7545 85.7879H91.0705C91.7403 85.7879 92.2832 86.3309 92.2832 87.0007C92.2832 87.6705 91.7403 88.2135 91.0705 88.2135H91.0223C90.9576 93.2587 90.117 97.0427 88.5004 99.5653C89.4057 100.73 90.5697 101.894 91.9923 103.058C91.3482 103.91 90.9114 104.485 90.6817 104.782C89.1323 103.783 87.8232 102.723 86.7545 101.603C85.8317 102.623 84.6535 103.625 83.22 104.609C82.956 104.345 82.0779 103.132 81.9049 102.889C83.2367 101.719 84.3035 100.579 85.1056 99.4682C83.8123 97.3984 82.9393 94.6171 82.4867 91.1242L81.7107 89.96H80.0618C80.4309 90.8829 81.0633 91.7181 81.959 92.4655C81.5538 93.097 81.1712 93.6999 81.0031 93.9497ZM69.6028 96.8001C69.6028 96.1303 70.1458 95.5873 70.8156 95.5873H71.1381V95.5065C71.1381 94.703 71.7895 94.0516 72.5931 94.0516C73.3966 94.0516 74.048 94.703 74.048 95.5065V95.5873H78.0248V95.555C78.0248 94.7247 78.698 94.0516 79.5283 94.0516C80.3586 94.0516 81.0317 94.7247 81.0317 95.555V95.5873H81.1603C81.8301 95.5873 82.3731 96.1303 82.3731 96.8001C82.3731 97.4699 81.8301 98.0129 81.1603 98.0129H80.8377C80.6437 100.018 79.9001 101.538 78.6068 102.573C78.9948 102.702 79.6091 102.896 80.4497 103.155C80.3588 103.65 80.0708 104.808 79.9875 105.226C78.3734 104.885 77.0691 104.492 75.9879 104.028C74.579 104.536 72.8017 104.969 70.6561 105.329C70.5836 105.086 70.2782 103.579 70.2467 103.22C71.4245 102.948 72.433 102.7 73.2721 102.476C72.1081 101.441 71.4291 99.9534 71.2351 98.0129H70.8156C70.1458 98.0129 69.6028 97.4699 69.6028 96.8001ZM86.7545 96.4605C87.4658 94.7788 87.9184 92.0298 88.1124 88.2135H85.7845C85.4612 88.7957 85.0086 89.3455 84.4266 89.8629C84.9785 89.8629 85.4425 90.2772 85.5049 90.8256C85.5289 91.0371 85.5434 91.1619 85.5484 91.2C85.8178 93.2631 86.2198 95.0166 86.7545 96.4605ZM78.8539 85.6971C78.9751 85.2503 79.065 84.7878 79.1234 84.3096C79.8731 84.4125 80.753 84.5272 81.6209 84.6884C81.4932 85.3353 81.3399 85.9054 81.161 86.3986C80.5875 86.2495 79.4943 85.9298 78.8539 85.6971ZM70.9707 86.4102C70.7639 85.8708 70.5987 85.3313 70.4752 84.7919C71.3411 84.6025 72.1162 84.4404 72.9715 84.278C73.0423 84.719 73.1482 85.2023 73.2894 85.7278C72.6753 85.9387 71.4634 86.2806 70.9707 86.4102ZM75.8909 101.215C77.0549 100.503 77.7339 99.4359 77.9279 98.0129H74.145C74.339 99.4359 74.921 100.503 75.8909 101.215Z" fill="white"/>
<path d="M91.274 104.958C91.8736 104.958 92.3598 104.472 92.3598 103.873C92.3598 103.273 91.8736 102.787 91.274 102.787C90.6743 102.787 90.1882 103.273 90.1882 103.873C90.1882 104.472 90.6743 104.958 91.274 104.958ZM82.6001 104.805C83.1993 104.805 83.685 104.319 83.685 103.72C83.685 103.121 83.1993 102.635 82.6001 102.635C82.001 102.635 81.5153 103.121 81.5153 103.72C81.5153 104.319 82.001 104.805 82.6001 104.805ZM70.4833 105.341C71.0761 105.341 71.5566 104.86 71.5566 104.267C71.5566 103.675 71.0761 103.194 70.4833 103.194C69.8905 103.194 69.4099 103.675 69.4099 104.267C69.4099 104.86 69.8905 105.341 70.4833 105.341ZM70.6375 94.0236C71.1141 94.0236 71.5006 93.6372 71.5006 93.1605C71.5006 92.6838 71.1141 92.2974 70.6375 92.2974C70.1608 92.2974 69.7743 92.6838 69.7743 93.1605C69.7743 93.6372 70.1608 94.0236 70.6375 94.0236ZM82.1829 91.1699C82.7463 91.1699 83.203 90.7132 83.203 90.1498C83.203 89.5864 82.7463 89.1297 82.1829 89.1297C81.6195 89.1297 81.1627 89.5864 81.1627 90.1498C81.1627 90.7132 81.6195 91.1699 82.1829 91.1699ZM71.7149 83.2191C72.4179 83.2191 72.9878 83.789 72.9878 84.492C72.9878 84.6867 72.9441 84.8711 72.866 85.0361C73.1376 85.258 73.3109 85.5957 73.3109 85.9738C73.3109 86.6425 72.7688 87.1846 72.1001 87.1846C71.4313 87.1846 70.8892 86.6425 70.8892 85.9738C70.8892 85.8161 70.9194 85.6654 70.9742 85.5273C70.6519 85.2965 70.4419 84.9188 70.4419 84.492C70.4419 83.789 71.0118 83.2191 71.7149 83.2191ZM80.3751 83.2191C81.0718 83.2191 81.6365 83.7838 81.6365 84.4805C81.6365 84.8908 81.4406 85.2554 81.1372 85.4858C81.2026 85.6342 81.2388 85.7985 81.2388 85.9711C81.2388 86.6384 80.6979 87.1793 80.0306 87.1793C79.3634 87.1793 78.8224 86.6384 78.8224 85.9711C78.8224 85.6019 78.9881 85.2713 79.2491 85.0497C79.1625 84.8786 79.1137 84.6853 79.1137 84.4805C79.1137 83.7838 79.6784 83.2191 80.3751 83.2191ZM85.4994 85.9424C86.3494 85.9424 87.0384 85.2533 87.0384 84.4033C87.0384 83.5533 86.3494 82.8643 85.4994 82.8643C84.6494 82.8643 83.9603 83.5533 83.9603 84.4033C83.9603 85.2533 84.6494 85.9424 85.4994 85.9424ZM81.3924 94.0394C81.8838 94.0394 82.2822 93.641 82.2822 93.1497C82.2822 92.6583 81.8838 92.2599 81.3924 92.2599C80.9011 92.2599 80.5027 92.6583 80.5027 93.1497C80.5027 93.641 80.9011 94.0394 81.3924 94.0394ZM80.1593 105.239C80.7457 105.239 81.2211 104.763 81.2211 104.177C81.2211 103.59 80.7457 103.115 80.1593 103.115C79.5728 103.115 79.0974 103.59 79.0974 104.177C79.0974 104.763 79.5728 105.239 80.1593 105.239Z" fill="white"/>
<path d="M128.098 85.1088C128.098 84.4658 128.619 83.9445 129.262 83.9445H132.948C133.778 83.9445 134.723 83.8459 135.783 83.6486C136.209 83.5691 136.516 85.9485 136.209 86.0129C135.589 86.1431 134.955 86.2298 134.306 86.2731V89.0867H135.76C136.403 89.0867 136.925 89.608 136.925 90.251C136.925 90.894 136.403 91.4153 135.76 91.4153H134.306C134.857 92.9603 135.55 94.3641 136.384 95.6267C136.48 95.7716 136.628 95.9849 136.828 96.2665C136.026 97.5697 135.462 98.0035 135.135 97.5678C134.83 97.1616 134.554 96.7602 134.306 96.3635V103.835C134.306 104.745 133.568 105.484 132.657 105.484C131.746 105.484 131.008 104.745 131.008 103.835V97.4308C130.518 98.2977 129.929 99.1537 129.242 99.9987C128.914 100.402 128.371 99.9665 127.613 98.6921C129.165 96.1694 130.232 93.7439 130.814 91.4153H129.068C128.425 91.4153 127.904 90.894 127.904 90.251C127.904 89.608 128.425 89.0867 129.068 89.0867H131.008V86.2731H129.262C128.619 86.2731 128.098 85.7518 128.098 85.1088ZM137.313 98.4495C137.313 97.7797 137.856 97.2367 138.525 97.2367H144.296V84.8657C144.296 83.8747 145.1 83.0713 146.091 83.0713C147.082 83.0713 147.885 83.8747 147.885 84.8657V97.2367H149.194C149.864 97.2367 150.407 97.7797 150.407 98.4495C150.407 99.1193 149.864 99.6623 149.194 99.6623H147.885V103.689C147.885 104.68 147.082 105.484 146.091 105.484C145.1 105.484 144.296 104.68 144.296 103.689V99.6623H138.525C137.856 99.6623 137.313 99.1193 137.313 98.4495ZM141.423 94.4276C140.388 93.9152 139.372 93.5466 138.375 93.3218C138.084 93.2562 138.396 90.6416 138.827 90.7142C140.186 90.9433 141.455 91.324 142.632 91.8564C142.801 91.9326 141.987 94.7068 141.423 94.4276ZM141.915 88.4883C140.93 88.081 139.926 87.7522 138.902 87.5019C138.664 87.4438 138.984 84.8765 139.364 84.9224C140.749 85.0901 141.959 85.4049 142.991 85.8666C143.208 85.9633 142.489 88.7258 141.915 88.4883Z" fill="white"/>
<path d="M135.948 86.0417C136.614 86.0417 137.154 85.5016 137.154 84.8353C137.154 84.169 136.614 83.6289 135.948 83.6289C135.282 83.6289 134.741 84.169 134.741 84.8353C134.741 85.5016 135.282 86.0417 135.948 86.0417ZM139.218 87.538C139.943 87.538 140.531 86.9502 140.531 86.2251C140.531 85.5 139.943 84.9123 139.218 84.9123C138.493 84.9123 137.905 85.5 137.905 86.2251C137.905 86.9502 138.493 87.538 139.218 87.538ZM138.622 93.3433C139.352 93.3433 139.943 92.7516 139.943 92.0216C139.943 91.2916 139.352 90.6999 138.622 90.6999C137.892 90.6999 137.3 91.2916 137.3 92.0216C137.3 92.7516 137.892 93.3433 138.622 93.3433ZM142.039 94.5663C142.823 94.5663 143.458 93.9308 143.458 93.147C143.458 92.3631 142.823 91.7276 142.039 91.7276C141.255 91.7276 140.62 92.3631 140.62 93.147C140.62 93.9308 141.255 94.5663 142.039 94.5663ZM142.365 88.5633C143.149 88.5633 143.784 87.9278 143.784 87.144C143.784 86.3601 143.149 85.7246 142.365 85.7246C141.581 85.7246 140.945 86.3601 140.945 87.144C140.945 87.9278 141.581 88.5633 142.365 88.5633ZM128.44 100.429C129.028 100.429 129.505 99.9522 129.505 99.3643C129.505 98.7764 129.028 98.2998 128.44 98.2998C127.853 98.2998 127.376 98.7764 127.376 99.3643C127.376 99.9522 127.853 100.429 128.44 100.429ZM135.944 97.9511C136.537 97.9511 137.017 97.4706 137.017 96.8778C137.017 96.285 136.537 95.8044 135.944 95.8044C135.351 95.8044 134.871 96.285 134.871 96.8778C134.871 97.4706 135.351 97.9511 135.944 97.9511Z" fill="white"/>
<path d="M193.822 86.8166C193.822 86.1736 194.343 85.6523 194.986 85.6523H198.672V84.9241C198.672 83.8795 199.519 83.0327 200.563 83.0327C201.608 83.0327 202.455 83.8795 202.455 84.9241V85.6523H206.722C207.365 85.6523 207.887 86.1736 207.887 86.8166C207.887 87.4596 207.365 87.9809 206.722 87.9809H202.455V91.0857H205.957C206.701 91.0857 207.305 91.6889 207.305 92.433V93.4142C206.399 96.4543 205.009 98.8799 203.134 100.691C204.353 101.504 205.781 102.265 207.418 102.974C207.604 103.055 207.08 105.311 206.645 105.185C204.312 104.508 202.301 103.625 200.612 102.534C198.942 103.537 196.817 104.443 194.237 105.253C193.82 105.384 193.32 103.267 193.502 103.194C195.337 102.467 196.931 101.633 198.284 100.691C197.14 99.592 196.125 98.2175 195.24 96.5674C194.874 95.8866 198.094 94.7874 198.196 94.9835C198.91 96.3475 199.748 97.5385 200.709 98.5565C201.873 97.1981 202.843 95.4841 203.619 93.4142H195.18C194.537 93.4142 194.016 92.893 194.016 92.2499C194.016 91.6069 194.537 91.0857 195.18 91.0857H198.672V87.9809H194.986C194.343 87.9809 193.822 87.4596 193.822 86.8166ZM185.771 87.3017C185.771 86.6587 186.293 86.1375 186.936 86.1375H187.905V84.8757C187.905 83.9114 188.687 83.1297 189.651 83.1297C190.616 83.1297 191.397 83.9114 191.397 84.8757V86.1375H192.076C192.719 86.1375 193.24 86.6587 193.24 87.3017C193.24 87.9448 192.719 88.466 192.076 88.466H191.397V93.0261C191.674 92.9645 191.966 92.8882 192.273 92.7972C192.61 92.6972 193.174 94.9431 193.094 94.9787C192.478 95.2517 191.912 95.474 191.397 95.6458V102.146C191.397 104.346 190.363 105.445 188.293 105.445C187.728 105.445 187.303 105.445 187.02 105.445C186.971 104.988 186.943 104.18 186.935 103.02C187.582 103.084 187.905 102.728 187.905 101.952V96.519C187.811 96.5473 187.714 96.5743 187.614 96.5999C187.504 96.628 187.39 96.6545 187.273 96.6793C187.027 96.7317 186.632 93.9325 186.845 93.9154C186.937 93.908 187.029 93.9003 187.118 93.8926C187.49 93.8603 187.808 93.8267 187.905 93.8023V88.466H186.936C186.293 88.466 185.771 87.9448 185.771 87.3017Z" fill="white"/>
<path d="M193.885 105.309C194.487 105.309 194.976 104.82 194.976 104.218C194.976 103.615 194.487 103.126 193.885 103.126C193.282 103.126 192.793 103.615 192.793 104.218C192.793 104.82 193.282 105.309 193.885 105.309ZM186.832 96.7389C187.61 96.7389 188.241 96.1135 188.241 95.3421C188.241 94.5707 187.61 93.9216 186.832 93.9216C186.054 93.9216 185.423 94.5707 185.423 95.3421C185.423 96.1135 186.054 96.7389 186.832 96.7389ZM187.006 105.446C187.674 105.446 188.216 104.904 188.216 104.236C188.216 103.567 187.674 103.026 187.006 103.026C186.338 103.026 185.796 103.567 185.796 104.236C185.796 104.904 186.338 105.446 187.006 105.446ZM206.965 105.232C207.614 105.232 208.14 104.706 208.14 104.057C208.14 103.407 207.614 102.881 206.965 102.881C206.315 102.881 205.789 103.407 205.789 104.057C205.789 104.706 206.315 105.232 206.965 105.232ZM192.59 95.0928C193.236 95.0928 193.761 94.5686 193.761 93.9219C193.761 93.2752 193.236 92.751 192.59 92.751C191.943 92.751 191.419 93.2752 191.419 93.9219C191.419 94.5686 191.943 95.0928 192.59 95.0928ZM196.709 97.4497C197.635 97.4497 198.386 96.6991 198.386 95.7731C198.386 94.8472 197.635 94.0966 196.709 94.0966C195.783 94.0966 195.033 94.8472 195.033 95.7731C195.033 96.6991 195.783 97.4497 196.709 97.4497Z" fill="white"/>
</svg>
