<svg width="252" height="42" viewBox="0 0 252 42" fill="none" xmlns="http://www.w3.org/2000/svg">
<path d="M39.4337 0.584396C41.1654 0.584396 42.5692 1.99058 42.5692 3.72519C42.5692 3.8447 42.5625 3.96266 42.5495 4.07871L42.5496 9.89709C43.3825 9.14905 44.3232 8.57364 45.3715 8.17085C46.4199 7.76807 47.5759 7.55229 48.8397 7.52352H49.012C51.0513 7.52352 52.9182 8.04139 54.6128 9.07713C56.3074 10.1129 57.6502 11.537 58.6411 13.3496C59.632 15.1621 60.1274 17.1617 60.1274 19.3482C60.1274 21.4773 59.6463 23.4408 58.6842 25.239C57.722 27.0372 56.3792 28.4685 54.6559 29.533C52.9326 30.5975 50.9938 31.1298 48.8397 31.1298C47.5759 31.1298 46.4199 30.9356 45.3715 30.5472C44.3232 30.1588 43.3825 29.605 42.5496 28.8857L42.3823 28.7233C41.9453 29.9308 40.7901 30.7935 39.4337 30.7935C37.702 30.7935 36.2982 29.3873 36.2982 27.6527C36.2982 27.5972 36.2997 27.5421 36.3025 27.4873V3.89065C36.2997 3.83585 36.2982 3.78069 36.2982 3.72519C36.2982 1.99058 37.702 0.584396 39.4337 0.584396ZM48.2365 13.1769C47.1451 13.1769 46.1326 13.4646 45.1992 14.0401C44.2657 14.6155 43.5189 15.3779 42.9589 16.3273C42.3988 17.2767 42.1187 18.2837 42.1187 19.3482C42.1187 20.4127 42.406 21.4197 42.9804 22.3691C43.5261 23.3186 44.2657 24.0738 45.1992 24.6348C46.1326 25.1959 47.1451 25.4764 48.2365 25.4764C49.328 25.4764 50.3404 25.1959 51.2739 24.6348C52.2073 24.0738 52.9469 23.3186 53.4927 22.3691C54.0384 21.4197 54.3112 20.4127 54.3112 19.3482C54.3112 18.2549 54.0384 17.2408 53.4927 16.3057C52.9469 15.3707 52.2073 14.6155 51.2739 14.0401C50.3404 13.4646 49.328 13.1769 48.2365 13.1769Z" fill="white"/>
<path d="M81.077 6.96188C82.7822 6.96188 84.1646 8.34659 84.1646 10.0547C84.1646 10.586 84.0309 11.086 83.7953 11.5228L72.8603 39.1866C72.4734 40.4063 71.3337 41.29 69.9879 41.29C68.3236 41.29 66.9745 39.9386 66.9745 38.2715C66.9745 37.7998 67.0825 37.3533 67.2751 36.9556L69.7557 30.6551L61.781 11.3442L61.7863 11.3421C61.5984 10.9444 61.4933 10.4999 61.4933 10.0307C61.4933 8.33586 62.865 6.96188 64.557 6.96188C65.9958 6.96188 67.203 7.95538 67.5321 9.29489L72.9439 23.3186L78.0885 9.27444C78.4337 7.94407 79.6408 6.96188 81.077 6.96188Z" fill="white"/>
<path d="M93.9086 8.64556H98.098C99.5757 8.64556 100.774 9.8435 100.774 11.3212C100.774 12.799 99.5757 13.9969 98.098 13.9969H93.9086V22.887C93.9086 23.8652 94.1384 24.5701 94.5979 25.0016C95.0575 25.4332 95.8042 25.649 96.8382 25.649H98.2059C99.624 25.649 100.774 26.7986 100.774 28.2168C100.774 29.6349 99.624 30.7845 98.2059 30.7845H96.4074C90.7492 30.7845 87.92 28.2527 87.92 23.1891V6.33625C87.92 4.68256 89.2606 3.34198 90.9143 3.34198C92.568 3.34198 93.9086 4.68256 93.9086 6.33625V8.64556Z" fill="white"/>
<path d="M114.158 7.95143C115.839 7.95143 117.562 8.33983 119.242 9.1598C120.922 9.97976 122.344 11.2744 123.464 13.0007C124.571 14.7056 125.131 16.8315 125.144 19.3368L125.144 19.4309C125.144 20.7418 124.082 21.8045 122.771 21.8045H108.816C109.161 23.1855 109.893 24.2212 110.97 24.9549C112.047 25.6885 113.297 26.0338 114.805 26.0338C116.054 26.0338 117.045 25.9043 117.734 25.6885C118.312 25.4957 119.061 25.1651 119.952 24.6967C120.346 24.4236 120.824 24.2638 121.339 24.2638C122.687 24.2638 123.78 25.3586 123.78 26.7093C123.78 27.4595 123.443 28.1308 122.912 28.5794C122.913 28.5809 122.914 28.5823 122.915 28.5838L122.857 28.6248C122.773 28.6912 122.685 28.7522 122.594 28.8074C121.479 29.575 120.591 30.089 119.931 30.3493C118.467 30.9535 116.7 31.2556 114.589 31.2556C112.65 31.2556 110.755 30.8241 108.945 29.9178C107.093 29.0547 105.628 27.76 104.465 25.9906C103.301 24.2212 102.698 22.1497 102.698 19.6898C102.698 17.23 103.301 15.0722 104.465 13.3028C105.628 11.5334 107.093 10.1955 108.859 9.28926C110.625 8.38299 112.392 7.95143 114.158 7.95143ZM114.158 13.2165C112.995 13.2165 111.918 13.5617 110.927 14.2953C109.936 15.029 109.247 16.0647 108.859 17.4026H119.414C119.199 16.0647 118.553 15.029 117.519 14.2953C116.485 13.5617 115.365 13.2165 114.158 13.2165Z" fill="white"/>
<path d="M15.7719 0C18.9146 0 21.7268 0.822607 24.2086 2.46782C24.8474 2.89124 25.4457 3.35261 26.0037 3.85193L26.0009 3.85504C26.7012 4.43686 27.1473 5.31513 27.1473 6.29776C27.1473 8.04958 25.7295 9.46971 23.9807 9.46971C23.0853 9.46971 22.2768 9.0975 21.7008 8.49912C21.297 8.13706 20.8312 7.79307 20.3537 7.51363C18.9733 6.70571 17.4461 6.30175 15.7719 6.30175C14.0391 6.30175 12.4751 6.7204 11.08 7.5577C9.68492 8.39499 8.59087 9.54077 7.79786 10.995C7.00486 12.4493 6.60836 14.0431 6.60836 15.7764C6.60836 17.5098 7.00486 19.0962 7.79786 20.5358C8.59087 21.9753 9.68492 23.1138 11.08 23.9511C12.4751 24.7884 14.0391 25.207 15.7719 25.207C17.0055 25.207 18.1803 24.994 19.2964 24.568C20.4125 24.142 21.4037 23.4884 22.2702 22.607C23.1366 21.7256 23.8048 20.6533 24.2747 19.39C24.7446 18.1267 24.5779 17.1882 24.5779 16.0305C25.3229 16.062 27.3659 16.1683 30.7068 16.3493C30.7068 19.2578 30.0533 21.8652 28.7464 24.1714C27.4394 26.4777 25.6478 28.2771 23.3716 29.5698C21.0953 30.8624 18.5621 31.5088 15.7719 31.5088C12.923 31.5088 10.2944 30.8037 7.88597 29.3935C5.47759 27.9833 3.56117 26.0737 2.1367 23.6646C0.712234 21.2556 0 18.6262 0 15.7764C0 12.9267 0.712234 10.2973 2.1367 7.88821C3.56117 5.47915 5.47759 3.56218 7.88597 2.13731C10.2944 0.712436 12.923 0 15.7719 0Z" fill="white"/>
<path fill-rule="evenodd" clip-rule="evenodd" d="M28.1293 11.3164C30.5261 11.3164 32.4691 13.2593 32.4691 15.656C32.4691 18.0527 30.5261 19.9956 28.1293 19.9956C26.5208 19.9956 25.1167 19.1205 24.3671 17.8204L24.366 17.8205L24.3503 17.7911C24.3384 17.7701 24.3267 17.749 24.3152 17.7278C23.8288 16.875 22.911 16.3003 21.859 16.3003C20.8122 16.3003 19.8983 16.8691 19.4099 17.7146C19.395 17.7424 19.3797 17.7701 19.3641 17.7975C19.3598 17.8051 19.3557 17.8128 19.3517 17.8205C18.6013 19.1205 17.1972 19.9956 15.5887 19.9956C13.1919 19.9956 11.249 18.0527 11.249 15.656C11.249 13.2593 13.1919 11.3164 15.5887 11.3164C17.2314 11.3164 18.6608 12.229 19.3978 13.5748L19.3994 13.5777C19.8851 14.4337 20.8046 15.0111 21.859 15.0111C22.9037 15.0111 23.816 14.4443 24.3052 13.6013L24.3137 13.5868C25.0488 12.2344 26.4818 11.3164 28.1293 11.3164Z" fill="#467DFF"/>
<path d="M155.988 19.3185C154.204 19.3761 153.341 18.4552 153.399 16.5559V10.9116C153.399 10.1667 154.003 9.56288 154.747 9.56288H163.583C165.4 9.612 167.3 9.43062 169.284 9.01872C169.379 9.47581 169.674 10.7897 169.791 11.25C168.219 11.6158 166.322 11.7729 164.101 11.7212H156.506V15.8652C156.506 16.7285 156.937 17.1602 157.8 17.1602H160.649V14.8287C160.649 13.8754 161.422 13.1026 162.375 13.1026C163.328 13.1026 164.101 13.8754 164.101 14.8287V17.1602H170.013C170.609 17.1602 171.092 17.6434 171.092 18.2394C171.092 18.8354 170.609 19.3185 170.013 19.3185H164.101V25.1892C164.159 27.3763 163.209 28.4411 161.253 28.3835C160.437 28.3835 159.825 28.3835 159.418 28.3835C159.417 27.9524 159.433 26.6154 159.425 26.1389C159.486 26.1389 159.577 26.1389 159.699 26.1389C160.39 26.1389 160.706 25.8223 160.649 25.1892V19.3185H155.988ZM152.383 25.5453C153.878 24.4652 154.907 23.0072 155.468 21.1714C156.072 21.3809 157.454 21.8808 158.261 22.1789C157.371 24.4592 155.729 26.1088 153.332 27.1278C153.225 26.9727 152.436 25.6402 152.383 25.5453ZM170.686 27.1242C168.348 26.0863 166.749 24.4596 165.89 22.2441C166.596 22.0054 167.95 21.5468 168.773 21.2887C169.286 23.115 170.226 24.5345 171.595 25.5473C171.501 25.708 170.82 26.9067 170.686 27.1242Z" fill="white"/>
<path d="M156.867 23.1552C157.686 23.1552 158.351 22.4908 158.351 21.6712C158.351 20.8517 157.686 20.1873 156.867 20.1873C156.047 20.1873 155.383 20.8517 155.383 21.6712C155.383 22.4908 156.047 23.1552 156.867 23.1552ZM159.44 28.3839C160.06 28.3839 160.562 27.8813 160.562 27.2614C160.562 26.6415 160.06 26.139 159.44 26.139C158.82 26.139 158.317 26.6415 158.317 27.2614C158.317 27.8813 158.82 28.3839 159.44 28.3839ZM169.494 11.2875C170.125 11.2875 170.637 10.7754 170.637 10.1437C170.637 9.51207 170.125 9 169.494 9C168.862 9 168.35 9.51207 168.35 10.1437C168.35 10.7754 168.862 11.2875 169.494 11.2875ZM152.926 27.2203C153.437 27.2203 153.852 26.8058 153.852 26.2944C153.852 25.7831 153.437 25.3685 152.926 25.3685C152.415 25.3685 152 25.7831 152 26.2944C152 26.8058 152.415 27.2203 152.926 27.2203ZM171.049 27.1993C171.555 27.1993 171.965 26.7893 171.965 26.2836C171.965 25.778 171.555 25.368 171.049 25.368C170.543 25.368 170.133 25.778 170.133 26.2836C170.133 26.7893 170.543 27.1993 171.049 27.1993ZM167.311 23.2246C168.149 23.2246 168.829 22.5447 168.829 21.706C168.829 20.8672 168.149 20.1873 167.311 20.1873C166.472 20.1873 165.792 20.8672 165.792 21.706C165.792 22.5447 166.472 23.2246 167.311 23.2246Z" fill="white"/>
<path d="M188.439 18.8636C186.82 18.0473 185.793 16.8639 185.357 15.3135V17.5153C185.357 18.2542 184.758 18.8531 184.019 18.8531C183.281 18.8531 182.682 18.2542 182.682 17.5153V15.3998C182.682 15.3521 182.643 15.3135 182.595 15.3135C182.16 16.8124 181.157 17.9864 179.584 18.8354C179.405 18.5853 178.816 17.6909 178.752 17.5471C179.601 16.881 180.163 16.1365 180.438 15.3135H179.747C179.175 15.3135 178.711 14.8496 178.711 14.2775C178.711 13.7053 179.175 13.2415 179.747 13.2415H182.682V10.5216C182.682 9.78274 183.281 9.18379 184.019 9.18379C184.758 9.18379 185.357 9.78274 185.357 10.5216V13.2415H188.133C188.712 13.2415 189.182 13.7111 189.182 14.2905V14.6228C190.134 13.6195 190.761 12.1133 191.097 10.1042C191.575 10.1122 193.887 10.1478 193.794 10.5792C193.715 10.944 193.636 11.2846 193.556 11.6011H197.397C197.993 11.6011 198.476 12.0843 198.476 12.6803C198.476 13.2763 197.993 13.7595 197.397 13.7595H197.354C197.297 18.2488 196.549 21.6158 195.11 23.8605C195.916 24.8965 196.951 25.9325 198.217 26.9685C197.644 27.7264 197.255 28.2378 197.051 28.5027C195.672 27.6131 194.507 26.67 193.556 25.6735C192.735 26.5813 191.687 27.4729 190.411 28.3482C190.177 28.1136 189.395 27.0342 189.241 26.8179C190.426 25.7771 191.376 24.7625 192.089 23.7741C190.938 21.9323 190.162 19.4575 189.759 16.3495L189.068 15.3135H187.601C187.93 16.1347 188.492 16.8779 189.289 17.5429C188.929 18.1049 188.588 18.6413 188.439 18.8636ZM178.295 21.4C178.295 20.8039 178.778 20.3208 179.374 20.3208H179.661V20.2489C179.661 19.5339 180.24 18.9543 180.955 18.9543C181.67 18.9543 182.25 19.5339 182.25 20.2489V20.3208H185.789V20.292C185.789 19.5532 186.388 18.9543 187.126 18.9543C187.865 18.9543 188.464 19.5532 188.464 20.292V20.3208H188.579C189.175 20.3208 189.658 20.8039 189.658 21.4C189.658 21.996 189.175 22.4791 188.579 22.4791H188.292C188.119 24.2633 187.457 25.6159 186.307 26.5368C186.652 26.6519 187.198 26.8246 187.946 27.0548C187.865 27.4951 187.609 28.5256 187.535 28.8972C186.099 28.5942 184.938 28.2442 183.976 27.8318C182.723 28.2832 181.141 28.6691 179.232 28.9894C179.167 28.7727 178.896 27.4318 178.868 27.1125C179.916 26.8703 180.813 26.6496 181.56 26.4505C180.524 25.5296 179.92 24.2058 179.747 22.4791H179.374C178.778 22.4791 178.295 21.996 178.295 21.4ZM193.556 21.0978C194.189 19.6013 194.592 17.1552 194.765 13.7595H192.693C192.406 14.2775 192.003 14.7667 191.485 15.2271C191.976 15.2271 192.389 15.5958 192.445 16.0837C192.466 16.2719 192.479 16.383 192.483 16.4169C192.723 18.2526 193.081 19.8129 193.556 21.0978ZM186.526 11.5203C186.634 11.1227 186.714 10.7112 186.766 10.2856C187.433 10.3772 188.216 10.4793 188.989 10.6227C188.875 11.1984 188.738 11.7056 188.579 12.1445C188.069 12.0118 187.096 11.7273 186.526 11.5203ZM179.512 12.1548C179.328 11.6748 179.181 11.1948 179.071 10.7148C179.841 10.5463 180.531 10.4021 181.292 10.2576C181.355 10.65 181.449 11.08 181.575 11.5476C181.029 11.7353 179.95 12.0395 179.512 12.1548ZM183.89 25.3281C184.926 24.695 185.53 23.7453 185.702 22.4791H182.336C182.509 23.7453 183.027 24.695 183.89 25.3281Z" fill="white"/>
<path d="M197.578 28.6599C198.111 28.6599 198.544 28.2273 198.544 27.6937C198.544 27.1601 198.111 26.7276 197.578 26.7276C197.044 26.7276 196.612 27.1601 196.612 27.6937C196.612 28.2273 197.044 28.6599 197.578 28.6599ZM189.86 28.523C190.393 28.523 190.825 28.0908 190.825 27.5577C190.825 27.0245 190.393 26.5923 189.86 26.5923C189.327 26.5923 188.894 27.0245 188.894 27.5577C188.894 28.0908 189.327 28.523 189.86 28.523ZM179.078 29C179.605 29 180.033 28.5724 180.033 28.0449C180.033 27.5174 179.605 27.0898 179.078 27.0898C178.55 27.0898 178.123 27.5174 178.123 28.0449C178.123 28.5724 178.55 29 179.078 29ZM179.215 18.9298C179.639 18.9298 179.983 18.5859 179.983 18.1618C179.983 17.7376 179.639 17.3938 179.215 17.3938C178.791 17.3938 178.447 17.7376 178.447 18.1618C178.447 18.5859 178.791 18.9298 179.215 18.9298ZM189.488 16.3906C189.99 16.3906 190.396 15.9841 190.396 15.4828C190.396 14.9815 189.99 14.5751 189.488 14.5751C188.987 14.5751 188.581 14.9815 188.581 15.4828C188.581 15.9841 188.987 16.3906 189.488 16.3906ZM180.174 9.31573C180.799 9.31573 181.306 9.82286 181.306 10.4484C181.306 10.6216 181.268 10.7858 181.198 10.9326C181.44 11.13 181.594 11.4305 181.594 11.7669C181.594 12.362 181.112 12.8444 180.517 12.8444C179.921 12.8444 179.439 12.362 179.439 11.7669C179.439 11.6266 179.466 11.4926 179.515 11.3696C179.228 11.1642 179.041 10.8281 179.041 10.4484C179.041 9.82286 179.548 9.31573 180.174 9.31573ZM187.88 9.31573C188.5 9.31573 189.002 9.81826 189.002 10.4382C189.002 10.8033 188.828 11.1277 188.558 11.3327C188.616 11.4648 188.648 11.6109 188.648 11.7645C188.648 12.3583 188.167 12.8396 187.573 12.8396C186.98 12.8396 186.498 12.3583 186.498 11.7645C186.498 11.436 186.646 11.1419 186.878 10.9447C186.801 10.7924 186.757 10.6204 186.757 10.4382C186.757 9.81826 187.26 9.31573 187.88 9.31573ZM192.439 11.739C193.196 11.739 193.809 11.1258 193.809 10.3695C193.809 9.61314 193.196 9 192.439 9C191.683 9 191.07 9.61314 191.07 10.3695C191.07 11.1258 191.683 11.739 192.439 11.739ZM188.785 18.9439C189.222 18.9439 189.577 18.5894 189.577 18.1522C189.577 17.7149 189.222 17.3604 188.785 17.3604C188.348 17.3604 187.993 17.7149 187.993 18.1522C187.993 18.5894 188.348 18.9439 188.785 18.9439ZM187.688 28.9091C188.21 28.9091 188.633 28.486 188.633 27.9642C188.633 27.4424 188.21 27.0194 187.688 27.0194C187.166 27.0194 186.743 27.4424 186.743 27.9642C186.743 28.486 187.166 28.9091 187.688 28.9091Z" fill="white"/>
<path d="M205.345 10.813C205.345 10.2408 205.809 9.777 206.381 9.777H209.66C210.399 9.777 211.239 9.68922 212.183 9.51367C212.562 9.443 212.835 11.5602 212.563 11.6175C212.011 11.7333 211.446 11.8105 210.869 11.849V14.3527H212.163C212.735 14.3527 213.199 14.8165 213.199 15.3887C213.199 15.9608 212.735 16.4247 212.163 16.4247H210.869C211.359 17.7994 211.976 19.0486 212.718 20.172C212.803 20.301 212.935 20.4908 213.113 20.7413C212.399 21.901 211.897 22.2869 211.606 21.8992C211.335 21.5378 211.089 21.1806 210.869 20.8277V27.4757C210.869 28.2861 210.212 28.943 209.401 28.943C208.591 28.943 207.934 28.2861 207.934 27.4757V21.7773C207.498 22.5488 206.974 23.3104 206.362 24.0623C206.07 24.4212 205.587 24.0337 204.913 22.8997C206.294 20.655 207.244 18.4967 207.761 16.4247H206.208C205.636 16.4247 205.172 15.9608 205.172 15.3887C205.172 14.8165 205.636 14.3527 206.208 14.3527H207.934V11.849H206.381C205.809 11.849 205.345 11.3852 205.345 10.813ZM213.544 22.6838C213.544 22.0878 214.027 21.6047 214.623 21.6047H219.758V10.5967C219.758 9.71487 220.473 9 221.355 9C222.237 9 222.952 9.71487 222.952 10.5967V21.6047H224.117C224.713 21.6047 225.196 22.0878 225.196 22.6838C225.196 23.2798 224.713 23.763 224.117 23.763H222.952V27.3463C222.952 28.2281 222.237 28.943 221.355 28.943C220.473 28.943 219.758 28.2281 219.758 27.3463V23.763H214.623C214.027 23.763 213.544 23.2798 213.544 22.6838ZM217.201 19.105C216.28 18.6491 215.376 18.3212 214.489 18.1211C214.23 18.0627 214.508 15.7362 214.892 15.8008C216.101 16.0047 217.23 16.3434 218.277 16.8172C218.428 16.885 217.703 19.3535 217.201 19.105ZM217.639 13.8202C216.763 13.4577 215.869 13.1652 214.958 12.9425C214.747 12.8908 215.031 10.6063 215.369 10.6472C216.602 10.7964 217.678 11.0765 218.597 11.4873C218.79 11.5733 218.15 14.0315 217.639 13.8202Z" fill="white"/>
<path d="M212.33 11.6433C212.922 11.6433 213.403 11.1627 213.403 10.5698C213.403 9.97691 212.922 9.49629 212.33 9.49629C211.737 9.49629 211.256 9.97691 211.256 10.5698C211.256 11.1627 211.737 11.6433 212.33 11.6433ZM215.239 12.9747C215.884 12.9747 216.407 12.4516 216.407 11.8065C216.407 11.1613 215.884 10.6382 215.239 10.6382C214.594 10.6382 214.071 11.1613 214.071 11.8065C214.071 12.4516 214.594 12.9747 215.239 12.9747ZM214.709 18.1404C215.358 18.1404 215.885 17.6138 215.885 16.9643C215.885 16.3147 215.358 15.7882 214.709 15.7882C214.059 15.7882 213.533 16.3147 213.533 16.9643C213.533 17.6138 214.059 18.1404 214.709 18.1404ZM217.75 19.2286C218.447 19.2286 219.013 18.6631 219.013 17.9656C219.013 17.2681 218.447 16.7027 217.75 16.7027C217.052 16.7027 216.487 17.2681 216.487 17.9656C216.487 18.6631 217.052 19.2286 217.75 19.2286ZM218.039 13.887C218.737 13.887 219.302 13.3216 219.302 12.6241C219.302 11.9266 218.737 11.3611 218.039 11.3611C217.342 11.3611 216.776 11.9266 216.776 12.6241C216.776 13.3216 217.342 13.887 218.039 13.887ZM205.649 24.4452C206.172 24.4452 206.597 24.0211 206.597 23.498C206.597 22.9748 206.172 22.5508 205.649 22.5508C205.126 22.5508 204.702 22.9748 204.702 23.498C204.702 24.0211 205.126 24.4452 205.649 24.4452ZM212.326 22.2405C212.854 22.2405 213.281 21.8129 213.281 21.2854C213.281 20.7579 212.854 20.3303 212.326 20.3303C211.799 20.3303 211.371 20.7579 211.371 21.2854C211.371 21.8129 211.799 22.2405 212.326 22.2405Z" fill="white"/>
<path d="M238.828 12.367C238.828 11.7948 239.291 11.331 239.864 11.331H243.143V10.683C243.143 9.75351 243.897 9 244.826 9C245.756 9 246.509 9.75351 246.509 10.683V11.331H250.306C250.879 11.331 251.342 11.7948 251.342 12.367C251.342 12.9392 250.879 13.403 250.306 13.403H246.509V16.1657H249.626C250.288 16.1657 250.825 16.7024 250.825 17.3645V18.2377C250.019 20.9428 248.782 23.1011 247.113 24.7127C248.198 25.4362 249.469 26.1134 250.925 26.7441C251.091 26.8158 250.625 28.8239 250.238 28.7116C248.162 28.1094 246.373 27.3232 244.869 26.353C243.383 27.2447 241.493 28.0511 239.197 28.7723C238.826 28.889 238.381 27.0044 238.543 26.9402C240.176 26.293 241.594 25.5505 242.798 24.7127C241.779 23.7348 240.876 22.5117 240.089 21.0434C239.764 20.4377 242.628 19.4595 242.72 19.634C243.355 20.8478 244.1 21.9075 244.956 22.8133C245.991 21.6047 246.854 20.0794 247.545 18.2377H240.036C239.464 18.2377 239 17.7738 239 17.2017C239 16.6295 239.464 16.1657 240.036 16.1657H243.143V13.403H239.864C239.291 13.403 238.828 12.9392 238.828 12.367ZM231.664 12.7987C231.664 12.2265 232.128 11.7627 232.7 11.7627H233.563V10.6399C233.563 9.78189 234.258 9.08633 235.116 9.08633C235.974 9.08633 236.67 9.78189 236.67 10.6399V11.7627H237.274C237.846 11.7627 238.31 12.2265 238.31 12.7987C238.31 13.3708 237.846 13.8347 237.274 13.8347H236.67V17.8923C236.917 17.8375 237.176 17.7696 237.449 17.6886C237.749 17.5997 238.251 19.5981 238.18 19.6297C237.631 19.8727 237.128 20.0705 236.67 20.2233V26.0077C236.67 27.9646 235.749 28.943 233.908 28.943C233.405 28.943 233.027 28.943 232.775 28.943C232.731 28.5366 232.706 27.8171 232.7 26.7847C233.275 26.8422 233.563 26.5257 233.563 25.835V21.0003C233.479 21.0256 233.392 21.0496 233.303 21.0723C233.205 21.0974 233.104 21.121 233.001 21.143C232.781 21.1896 232.43 18.6988 232.619 18.6836C232.701 18.677 232.783 18.6702 232.862 18.6634C233.193 18.6346 233.476 18.6047 233.563 18.583V13.8347H232.7C232.128 13.8347 231.664 13.3708 231.664 12.7987Z" fill="white"/>
<path d="M238.883 28.8216C239.419 28.8216 239.854 28.3869 239.854 27.8507C239.854 27.3145 239.419 26.8799 238.883 26.8799C238.347 26.8799 237.912 27.3145 237.912 27.8507C237.912 28.3869 238.347 28.8216 238.883 28.8216ZM232.607 21.1961C233.3 21.1961 233.861 20.6396 233.861 19.9532C233.861 19.2668 233.3 18.6891 232.607 18.6891C231.915 18.6891 231.354 19.2668 231.354 19.9532C231.354 20.6396 231.915 21.1961 232.607 21.1961ZM232.762 28.9434C233.357 28.9434 233.839 28.4614 233.839 27.8668C233.839 27.2721 233.357 26.7901 232.762 26.7901C232.168 26.7901 231.686 27.2721 231.686 27.8668C231.686 28.4614 232.168 28.9434 232.762 28.9434ZM250.522 28.7534C251.099 28.7534 251.568 28.2851 251.568 27.7075C251.568 27.1299 251.099 26.6617 250.522 26.6617C249.944 26.6617 249.476 27.1299 249.476 27.7075C249.476 28.2851 249.944 28.7534 250.522 28.7534ZM237.731 19.7314C238.306 19.7314 238.773 19.2649 238.773 18.6895C238.773 18.114 238.306 17.6475 237.731 17.6475C237.155 17.6475 236.689 18.114 236.689 18.6895C236.689 19.2649 237.155 19.7314 237.731 19.7314ZM241.396 21.8285C242.22 21.8285 242.888 21.1606 242.888 20.3367C242.888 19.5128 242.22 18.8449 241.396 18.8449C240.573 18.8449 239.905 19.5128 239.905 20.3367C239.905 21.1606 240.573 21.8285 241.396 21.8285Z" fill="white"/>
</svg>
