<svg width="204" height="38" viewBox="0 0 204 38" fill="none" xmlns="http://www.w3.org/2000/svg">
<path d="M23.3867 35.0988C23.462 34.9483 24.3108 33.2635 25.933 30.0466C26.0226 29.8594 26.1141 29.4422 26.1141 29.2347C26.1141 28.4981 25.4404 27.79 24.7484 27.79H18.7908C17.8871 27.79 17.1523 27.0616 17.1523 26.1643C17.1523 25.9059 17.2154 25.6495 17.3334 25.4196L17.9868 24.158C18.1944 23.7043 18.4834 23.2058 18.4834 22.7011C18.4834 20.8617 17.0851 19.3723 15.3591 19.3723L7.66938 34.8364C6.8715 36.4397 5.2269 37.453 3.42761 37.453H1.5469C0.683894 37.453 0 36.7063 0 35.7866C0 35.516 0.0610619 35.2494 0.18115 35.0093L16.7004 2.03017C17.2866 0.965996 18.1965 0.333191 19.4706 0.333191C20.7448 0.333191 21.6546 0.965996 22.2408 2.03017L38.7601 35.0073C38.8903 35.2718 38.9412 35.5567 38.9412 35.8273C38.9412 36.279 38.6237 36.9708 38.1067 37.2597C37.8808 37.3859 37.6487 37.453 37.3943 37.453H24.8502C23.9464 37.453 23.2117 36.7246 23.2117 35.8273C23.2137 35.575 23.2727 35.3247 23.3867 35.0988Z" fill="url(#paint0_linear_6147_7434)"/>
<path d="M61.4544 22.5144L59.4089 16.8293H51.5766L49.5738 22.5144H46.0444L53.7077 1.95533H57.3511L65.0143 22.5144H61.4544ZM58.5255 13.944L56.6061 8.37088C56.4657 7.99648 56.2723 7.40844 56.024 6.60675C55.7757 5.80303 55.6067 5.21499 55.5131 4.84263C55.2607 5.99023 54.8923 7.2477 54.4058 8.60894L52.5557 13.944H58.5255ZM71.0371 22.5144H67.7173V2.04079H79.2743V4.86908H71.0371V11.2684H78.7553V14.1109H71.0371V22.5144ZM94.7963 16.9555C94.7963 18.7766 94.1388 20.205 92.8219 21.2406C91.505 22.2763 89.6895 22.7952 87.3732 22.7952C85.0569 22.7952 83.1619 22.435 81.6863 21.7168V18.5507C82.6205 18.9902 83.6118 19.3341 84.6641 19.5864C85.7143 19.8387 86.6933 19.9648 87.5991 19.9648C88.9262 19.9648 89.9032 19.7125 90.5341 19.2079C91.1651 18.7033 91.4806 18.0278 91.4806 17.1773C91.4806 16.4122 91.1916 15.7631 90.6115 15.23C90.0334 14.6969 88.8366 14.0682 87.0251 13.3397C85.1566 12.5828 83.8397 11.7201 83.0744 10.7495C82.3091 9.77892 81.9265 8.61098 81.9265 7.2477C81.9265 5.53851 82.533 4.19558 83.7481 3.21483C84.9633 2.23409 86.5916 1.74371 88.6372 1.74371C90.5993 1.74371 92.5512 2.17304 94.493 3.03171L93.4285 5.76233C91.6068 4.99727 89.9826 4.61474 88.5537 4.61474C87.4709 4.61474 86.6486 4.85077 86.0888 5.32283C85.5291 5.79489 85.2482 6.41752 85.2482 7.19276C85.2482 7.72586 85.3602 8.17961 85.5841 8.55807C85.808 8.93653 86.1764 9.29261 86.6913 9.63038C87.2042 9.96611 88.1303 10.4097 89.4656 10.9611C90.9697 11.5858 92.0709 12.1697 92.771 12.711C93.4712 13.2522 93.9862 13.8647 94.3118 14.5463C94.6314 15.228 94.7963 16.0297 94.7963 16.9555Z" fill="#000719"/>
<path d="M102.608 2.12994H104.402V22.923H102.608V2.12994Z" fill="#000719"/>
<path d="M116.438 8.68382H118.728V11.6179H121.175V13.7076H118.728V15.9967C119.73 15.7973 120.684 15.5958 121.596 15.3741V17.5533C120.662 17.7974 119.705 18.0192 118.728 18.243V22.9779H116.438V18.6642C115.105 18.886 113.703 19.0875 112.235 19.2645L111.924 16.9978C113.526 16.8208 115.014 16.6193 116.438 16.3975V13.7076H112.726L112.215 11.6627C112.748 10.5517 113.281 9.17216 113.772 7.48332H111.971V5.21661H114.35C114.549 4.32743 114.751 3.3711 114.928 2.39442L117.173 2.72812C116.996 3.59492 116.817 4.41696 116.64 5.21865H121.643V7.48535H116.062C115.618 9.01955 115.15 10.3971 114.661 11.62H116.44V8.68382H116.438ZM123.42 2.10345L125.732 2.45953C125.598 3.59289 125.421 4.63875 125.221 5.59304H131.981V7.08247C131.58 8.97275 131.046 10.861 130.401 12.7513L128.089 12.1063C128.645 10.861 129.113 9.43871 129.512 7.79463H124.665C124.132 9.52824 123.487 10.9058 122.709 11.9516L120.798 10.5965C122.152 8.57191 123.019 5.74972 123.42 2.10345ZM125.221 9.08263H127.466C127.466 10.6392 127.377 12.0615 127.222 13.3495C128.223 16.5725 129.98 19.1505 132.469 21.0632L130.802 22.9962C128.978 21.3074 127.556 19.3072 126.512 16.951C125.779 19.3967 124.199 21.4417 121.798 23.0857L120.263 21.1955C122.376 19.7284 123.754 17.9724 124.399 15.9051C124.932 14.1512 125.199 11.8845 125.221 9.08263ZM139.44 9.08263C138.685 10.5497 137.861 11.8173 136.994 12.9283L135.414 11.0177C136.949 9.17216 138.305 6.54937 139.461 3.12693L141.663 3.63765C141.284 4.771 140.885 5.83721 140.485 6.81592H144.999V2.32524H147.334V6.81592H154.559V9.08263H147.334V13.9274H155.783V16.2164H147.334V22.8619H144.999V16.2185H135.728V13.9294H144.999V9.08263H139.44ZM179.32 14.1736L179.698 16.4403L177.651 16.774V22.9087H175.316V17.1524L168.713 18.1962L168.357 15.9295L175.316 14.8186V2.45953H177.651V14.4401L179.32 14.1736ZM171.003 3.59289C172.471 4.65909 173.739 5.70495 174.761 6.74878L173.159 8.37047C172.269 7.36937 171.001 6.30317 169.357 5.1922L171.003 3.59289ZM170.336 8.7062C171.848 9.81717 173.116 10.9058 174.183 11.9964L172.516 13.6628C171.626 12.6394 170.336 11.506 168.691 10.3055L170.336 8.7062ZM159.507 8.12833H162.908V5.57066C161.952 5.70495 160.975 5.81483 159.973 5.90436L159.507 3.72515C162.375 3.50336 164.934 3.08013 167.201 2.41274L168.023 4.59195C167.134 4.81373 166.222 5.03552 165.243 5.21458V8.1263H168.001V10.3706H165.243V11.1255C166.399 12.0147 167.578 12.9934 168.779 14.082L167.468 16.0415C166.601 14.9529 165.866 14.0637 165.245 13.3963V22.8884H162.911V13.5957C162.111 15.4636 161.064 17.1972 159.821 18.7517L158.797 16.1513C160.531 14.4625 161.799 12.5275 162.621 10.3727H159.509V8.12833H159.507ZM185.444 22.7093H183.533L183.045 20.5525C183.6 20.642 184.134 20.6868 184.667 20.6868C185.155 20.6868 185.402 20.3978 185.402 19.82V15.3517C184.647 15.6406 183.867 15.9072 183.112 16.1737L182.509 13.8846C183.488 13.6628 184.443 13.3739 185.4 13.0626V8.46H182.953V6.21567H185.4V2.41477H187.667V6.21567H189.757V8.46H187.667V12.149C188.379 11.8153 189.09 11.4592 189.802 11.0604V13.3271C189.09 13.7056 188.379 14.0616 187.667 14.3933V20.3958C187.669 21.932 186.912 22.7093 185.444 22.7093ZM190.315 5.37125H195.452V2.45953H197.72V5.37125H202.855V7.57081H197.72V10.5721H202.01V12.617C201.343 14.9061 200.187 16.8635 198.587 18.5076C199.92 19.4639 201.567 20.3083 203.478 21.0632L202.277 22.9962C200.164 22.0623 198.385 21.0408 196.963 19.9278C195.296 21.1955 193.273 22.2393 190.893 23.0613L189.804 21.1059C191.962 20.4385 193.806 19.5717 195.318 18.4831C193.629 16.7719 192.495 14.8593 191.917 12.7492H190.761V10.5721H195.452V7.57285H190.315V5.37125ZM194.095 12.7513C194.606 14.373 195.54 15.84 196.896 17.13C198.141 15.8848 199.096 14.4177 199.741 12.7513H194.095Z" fill="#000719"/>
<path d="M49.6227 36.7942L49.2705 35.6405H47.5038L47.1517 36.7942H46.0444L47.7562 31.9271H49.0141L50.732 36.7942H49.6227ZM49.0263 34.7778C48.7006 33.7319 48.5174 33.1418 48.4767 33.0035C48.436 32.8671 48.4075 32.7573 48.3892 32.6779C48.3159 32.9607 48.1063 33.6607 47.7623 34.7757H49.0263V34.7778ZM55.8204 34.324C55.8204 35.1216 55.5925 35.7341 55.1386 36.1573C54.6847 36.5826 54.0273 36.7942 53.1704 36.7942H51.7965V31.9474H53.3189C54.1107 31.9474 54.7254 32.157 55.163 32.5741C55.6027 32.9913 55.8204 33.5752 55.8204 34.324ZM54.7539 34.3505C54.7539 33.3087 54.2939 32.7898 53.3739 32.7898H52.8264V35.9457H53.2681C54.2573 35.9457 54.7539 35.4126 54.7539 34.3505ZM59.9828 31.9474H61.0209L59.3722 36.7942H58.2507L56.6061 31.9474H57.6442L58.556 34.8327C58.6069 35.0036 58.6598 35.201 58.7127 35.4269C58.7677 35.6527 58.8003 35.8114 58.8145 35.8989C58.8389 35.6954 58.9224 35.3394 59.0628 34.8307L59.9828 31.9474ZM64.7843 36.7942L64.4322 35.6405H62.6655L62.3134 36.7942H61.2061L62.9179 31.9271H64.1758L65.8936 36.7942H64.7843ZM64.188 34.7778C63.8623 33.7319 63.6791 33.1418 63.6384 33.0035C63.5977 32.8651 63.5692 32.7573 63.5509 32.6779C63.4776 32.9607 63.268 33.6607 62.924 34.7757H64.188V34.7778ZM71.261 36.7942H69.9542L67.8456 33.1276H67.815C67.8578 33.7746 67.8781 34.2365 67.8781 34.5133V36.7942H66.9602V31.9474H68.2567L70.3634 35.5774H70.3857C70.3532 34.9467 70.3369 34.5031 70.3369 34.2406V31.9454H71.263V36.7942H71.261ZM75 32.7329C74.6133 32.7329 74.3141 32.8773 74.1003 33.1683C73.8887 33.4593 73.7828 33.8642 73.7828 34.383C73.7828 35.4635 74.1879 36.0047 75 36.0047C75.3399 36.0047 75.7531 35.9193 76.2375 35.7504V36.6131C75.8386 36.7779 75.3949 36.8613 74.9043 36.8613C74.198 36.8613 73.6587 36.6477 73.2862 36.2204C72.9117 35.7931 72.7264 35.1786 72.7264 34.379C72.7264 33.8743 72.818 33.4328 73.0012 33.0543C73.1844 32.6759 73.449 32.3849 73.793 32.1814C74.137 31.978 74.54 31.8783 75.002 31.8783C75.4722 31.8783 75.9465 31.9922 76.4207 32.2201L76.0889 33.0564C75.9078 32.9709 75.7246 32.8956 75.5414 32.8305C75.3562 32.7634 75.175 32.7329 75 32.7329ZM80.5179 36.7942H77.7254V31.9474H80.5179V32.7898H78.7533V33.854H80.3958V34.6964H78.7533V35.9457H80.5179V36.7942ZM86.0094 34.324C86.0094 35.1216 85.7815 35.7341 85.3276 36.1573C84.8737 36.5826 84.2163 36.7942 83.3594 36.7942H81.9855V31.9474H83.5079C84.2997 31.9474 84.9144 32.157 85.352 32.5741C85.7896 32.9913 86.0094 33.5752 86.0094 34.324ZM84.9409 34.3505C84.9409 33.3087 84.4809 32.7898 83.5609 32.7898H83.0133V35.9457H83.455C84.4463 35.9457 84.9409 35.4126 84.9409 34.3505ZM91.564 36.7942H90.5362V32.802H89.2193V31.9474H92.881V32.802H91.564V36.7942ZM96.8764 36.7942H94.0839V31.9474H96.8764V32.7898H95.1117V33.854H96.7543V34.6964H95.1117V35.9457H96.8764V36.7942ZM100.406 32.7329C100.019 32.7329 99.7199 32.8773 99.5062 33.1683C99.2945 33.4593 99.1886 33.8642 99.1886 34.383C99.1886 35.4635 99.5937 36.0047 100.406 36.0047C100.746 36.0047 101.159 35.9193 101.643 35.7504V36.6131C101.244 36.7779 100.801 36.8613 100.31 36.8613C99.6039 36.8613 99.0645 36.6477 98.692 36.2204C98.3175 35.7931 98.1323 35.1786 98.1323 34.379C98.1323 33.8743 98.2239 33.4328 98.4071 33.0543C98.5902 32.6759 98.8548 32.3849 99.1988 32.1814C99.5428 31.98 99.9458 31.8783 100.408 31.8783C100.878 31.8783 101.352 31.9922 101.827 32.2201L101.495 33.0564C101.314 32.9709 101.13 32.8956 100.947 32.8305C100.762 32.7634 100.581 32.7329 100.406 32.7329ZM107.104 36.7942H106.08V34.7025H104.161V36.7942H103.133V31.9474H104.161V33.8479H106.08V31.9474H107.104V36.7942ZM113.086 36.7942H111.78L109.671 33.1276H109.64C109.683 33.7746 109.704 34.2365 109.704 34.5133V36.7942H108.786V31.9474H110.082L112.189 35.5774H112.211C112.179 34.9467 112.162 34.5031 112.162 34.2406V31.9454H113.088V36.7942H113.086ZM119.166 34.3627C119.166 35.1644 118.967 35.7809 118.57 36.2123C118.171 36.6436 117.601 36.8593 116.858 36.8593C116.115 36.8593 115.545 36.6436 115.146 36.2123C114.747 35.7809 114.55 35.1623 114.55 34.3566C114.55 33.5508 114.749 32.9343 115.148 32.509C115.547 32.0838 116.119 31.8701 116.864 31.8701C117.609 31.8701 118.179 32.0838 118.574 32.5131C118.969 32.9424 119.166 33.559 119.166 34.3627ZM115.627 34.3627C115.627 34.9039 115.73 35.3129 115.936 35.5856C116.141 35.8603 116.449 35.9966 116.858 35.9966C117.678 35.9966 118.089 35.4513 118.089 34.3627C118.089 33.27 117.682 32.7247 116.866 32.7247C116.457 32.7247 116.15 32.8631 115.94 33.1378C115.73 33.4145 115.627 33.8214 115.627 34.3627ZM120.627 36.7942V31.9474H121.655V35.9457H123.622V36.7942H120.627ZM129.188 34.3627C129.188 35.1644 128.989 35.7809 128.592 36.2123C128.193 36.6436 127.623 36.8593 126.88 36.8593C126.137 36.8593 125.567 36.6436 125.168 36.2123C124.77 35.7809 124.572 35.1623 124.572 34.3566C124.572 33.5508 124.772 32.9343 125.17 32.509C125.569 32.0838 126.141 31.8701 126.886 31.8701C127.631 31.8701 128.201 32.0838 128.596 32.5131C128.991 32.9424 129.188 33.559 129.188 34.3627ZM125.649 34.3627C125.649 34.9039 125.753 35.3129 125.958 35.5856C126.164 35.8603 126.471 35.9966 126.88 35.9966C127.7 35.9966 128.112 35.4513 128.112 34.3627C128.112 33.27 127.705 32.7247 126.888 32.7247C126.479 32.7247 126.17 32.8631 125.962 33.1378C125.753 33.4145 125.649 33.8214 125.649 34.3627ZM132.49 34.0717H134.413V36.5846C134.102 36.6864 133.809 36.7576 133.532 36.7983C133.257 36.839 132.976 36.8593 132.687 36.8593C131.954 36.8593 131.397 36.6436 131.01 36.2143C130.623 35.785 130.432 35.1664 130.432 34.3627C130.432 33.5793 130.656 32.9709 131.104 32.5334C131.551 32.096 132.172 31.8762 132.966 31.8762C133.463 31.8762 133.943 31.9759 134.405 32.1753L134.063 32.9974C133.709 32.8203 133.341 32.7329 132.958 32.7329C132.514 32.7329 132.158 32.8814 131.889 33.1805C131.623 33.4796 131.488 33.8804 131.488 34.383C131.488 34.91 131.596 35.3109 131.812 35.5876C132.028 35.8643 132.341 36.0027 132.752 36.0027C132.966 36.0027 133.184 35.9803 133.406 35.9355V34.9243H132.488V34.0717H132.49ZM137.536 33.9415L138.547 31.9454H139.654L138.046 34.906V36.7922H137.025V34.9385L135.417 31.9454H136.53L137.536 33.9415ZM141.226 36.08C141.112 36.5256 140.916 37.0567 140.642 37.6671H139.913C140.057 37.0791 140.167 36.5236 140.249 36.0027H141.177L141.226 36.08ZM147.824 35.4472C147.824 35.8847 147.668 36.2306 147.352 36.4808C147.037 36.7332 146.599 36.8593 146.037 36.8593C145.52 36.8593 145.062 36.7616 144.663 36.5683V35.6141C144.991 35.7606 145.268 35.8623 145.494 35.9233C145.72 35.9844 145.927 36.0129 146.117 36.0129C146.343 36.0129 146.516 35.9701 146.636 35.8826C146.756 35.7972 146.817 35.669 146.817 35.4981C146.817 35.4024 146.79 35.319 146.738 35.2437C146.685 35.1705 146.607 35.0993 146.503 35.0301C146.4 34.9609 146.192 34.8531 145.875 34.7025C145.577 34.5641 145.356 34.4298 145.207 34.3016C145.058 34.1734 144.94 34.0249 144.853 33.854C144.765 33.6831 144.72 33.4857 144.72 33.2578C144.72 32.8285 144.865 32.4927 145.156 32.2465C145.447 32.0003 145.848 31.8783 146.361 31.8783C146.613 31.8783 146.854 31.9088 147.082 31.9678C147.309 32.0268 147.55 32.1123 147.8 32.2201L147.468 33.0197C147.21 32.9139 146.996 32.8387 146.827 32.798C146.658 32.7573 146.491 32.7349 146.328 32.7349C146.133 32.7349 145.984 32.7796 145.881 32.8712C145.777 32.9628 145.724 33.0808 145.724 33.2253C145.724 33.3168 145.744 33.3941 145.787 33.4633C145.83 33.5305 145.895 33.5956 145.989 33.6587C146.08 33.7217 146.298 33.8357 146.64 33.9985C147.094 34.2141 147.403 34.4319 147.572 34.6496C147.741 34.8673 147.824 35.1318 147.824 35.4472ZM149.162 36.7942V31.9474H150.19V36.7942H149.162ZM153.92 36.7942L152.752 32.9913H152.722C152.764 33.7645 152.785 34.2813 152.785 34.5397V36.7942H151.867V31.9474H153.267L154.415 35.6547H154.435L155.653 31.9474H157.053V36.7942H156.094V34.499C156.094 34.3912 156.096 34.265 156.098 34.1246C156.102 33.9822 156.117 33.6078 156.143 32.9974H156.113L154.863 36.7942H153.92ZM159.756 34.2284H160.094C160.409 34.2284 160.647 34.1653 160.804 34.0412C160.961 33.9171 161.04 33.7339 161.04 33.4959C161.04 33.2558 160.975 33.0767 160.843 32.9628C160.711 32.8488 160.505 32.7898 160.224 32.7898H159.756V34.2284ZM162.078 33.4593C162.078 33.9801 161.915 34.379 161.59 34.6557C161.264 34.9324 160.8 35.0708 160.198 35.0708H159.756V36.7942H158.728V31.9474H160.277C160.865 31.9474 161.313 32.0736 161.618 32.3279C161.926 32.5782 162.078 32.9567 162.078 33.4593ZM163.45 36.7942V31.9474H164.478V35.9457H166.444V36.7942H163.45ZM167.745 36.7942V31.9474H168.773V36.7942H167.745ZM171.464 36.7942H170.452V31.9474H173.23V32.7898H171.464V34.0392H173.108V34.8775H171.464V36.7942ZM174.637 36.7942V31.9474H175.665V36.7942H174.637ZM180.134 36.7942H177.342V31.9474H180.134V32.7898H178.37V33.854H180.012V34.6964H178.37V35.9457H180.134V36.7942ZM185.628 34.324C185.628 35.1216 185.4 35.7341 184.946 36.1573C184.492 36.5826 183.835 36.7942 182.978 36.7942H181.604V31.9474H183.126C183.918 31.9474 184.533 32.157 184.97 32.5741C185.408 32.9913 185.628 33.5752 185.628 34.324ZM184.559 34.3505C184.559 33.3087 184.099 32.7898 183.179 32.7898H182.632V35.9457H183.073C184.065 35.9457 184.559 35.4126 184.559 34.3505ZM189.312 36.7942V31.9474H190.34V35.9457H192.306V36.7942H189.312ZM193.605 36.7942V31.9474H194.632V36.7942H193.605ZM197.323 36.7942H196.312V31.9474H199.09V32.7898H197.323V34.0392H198.968V34.8775H197.323V36.7942ZM203.289 36.7942H200.496V31.9474H203.289V32.7898H201.524V33.854H203.167V34.6964H201.524V35.9457H203.289V36.7942Z" fill="#000719"/>
<defs>
<linearGradient id="paint0_linear_6147_7434" x1="-3.86884" y1="6.10577" x2="33.3663" y2="41.591" gradientUnits="userSpaceOnUse">
<stop stop-color="#FFAC87"/>
<stop offset="1" stop-color="#FF6D62"/>
</linearGradient>
</defs>
</svg>
