<svg width="220" height="32" xmlns="http://www.w3.org/2000/svg">

 <g>
  <title>Layer 1</title>
  <polyline stroke="#000" stroke-linecap="round" id="svg_1" points="63,15.017181396484375 63,15.017181396484375 " fill="none"/>
  <text style="cursor: move;" transform="matrix(0.916881 0 0 1 30.1928 0)" stroke="#000" xml:space="preserve" text-anchor="start" font-family="Noto Sans JP" font-size="24" stroke-width="0" id="svg_2" y="25.01718" x="8.51499" fill="#000000">Gbyte | 乐数科技</text>
  <ellipse ry="15" rx="15" id="svg_7" cy="17.01718" cx="15" stroke-width="0" stroke="#000" fill="#84D3DB"/>
  <ellipse stroke="#000" id="svg_8" cy="17.01718" cx="16" stroke-width="0" fill="#000000"/>
  <ellipse id="svg_9" cy="19.01718" cx="9" stroke-width="0" stroke="#000" fill="#000000"/>
  <text xml:space="preserve" text-anchor="start" font-family="Noto Sans JP" font-size="24" id="svg_10" y="25.01718" x="6" stroke-width="0" stroke="#000" fill="#000000">G</text>
  <polyline stroke="#000" stroke-linecap="round" id="svg_11" points="63,15.017181396484375 63,15.017181396484375 " fill="none"/>
  <text style="cursor: move;" transform="matrix(0.916881 0 0 1 30.1928 0)" stroke="#000" xml:space="preserve" text-anchor="start" font-family="Noto Sans JP" font-size="24" stroke-width="0" id="svg_12" y="25.01718" x="8.51499" fill="#000000">Gbyte | 乐数科技</text>
  <ellipse ry="15" rx="15" id="svg_13" cy="17.01718" cx="15" stroke-width="0" stroke="#000" fill="#84D3DB"/>
  <ellipse stroke="#000" id="svg_14" cy="17.01718" cx="16" stroke-width="0" fill="#000000"/>
  <text xml:space="preserve" text-anchor="start" font-family="Noto Sans JP" font-size="24" id="svg_15" y="25.01718" x="6" stroke-width="0" stroke="#000" fill="#000000">G</text>
  <polyline stroke="#000" stroke-linecap="round" id="svg_16" points="63,15.017181396484375 63,15.017181396484375 " fill="none"/>
  <text style="cursor: move;" transform="matrix(0.916881 0 0 1 30.1928 0)" stroke="#000" xml:space="preserve" text-anchor="start" font-family="Noto Sans JP" font-size="24" stroke-width="0" id="svg_17" y="25.01718" x="8.51499" fill="#000000">Gbyte | 乐数科技</text>
  <ellipse ry="15" rx="15" id="svg_18" cy="17.01718" cx="15" stroke-width="0" stroke="#000" fill="#84D3DB"/>
  <ellipse stroke="#000" id="svg_19" cy="17.01718" cx="16" stroke-width="0" fill="#000000"/>
  <text xml:space="preserve" text-anchor="start" font-family="Noto Sans JP" font-size="24" id="svg_20" y="25.01718" x="6" stroke-width="0" stroke="#000" fill="#000000">G</text>
  <polyline stroke="#000" stroke-linecap="round" id="svg_21" points="63,15.017181396484375 63,15.017181396484375 " fill="none"/>
  <text style="cursor: move;" transform="matrix(0.916881 0 0 1 30.1928 0)" stroke="#000" xml:space="preserve" text-anchor="start" font-family="Noto Sans JP" font-size="24" stroke-width="0" id="svg_22" y="25.01718" x="8.51499" fill="#000000">Gbyte | 乐数科技</text>
  <ellipse ry="15" rx="15" id="svg_23" cy="17.01718" cx="15" stroke-width="0" stroke="#000" fill="#84D3DB"/>
  <ellipse stroke="#000" id="svg_24" cy="17.01718" cx="16" stroke-width="0" fill="#000000"/>
  <ellipse id="svg_25" cy="19.01718" cx="9" stroke-width="0" stroke="#000" fill="#000000"/>
  <text xml:space="preserve" text-anchor="start" font-family="Noto Sans JP" font-size="24" id="svg_26" y="25.01718" x="6" stroke-width="0" stroke="#000" fill="#000000">G</text>
  <polyline stroke="#000" stroke-linecap="round" id="svg_27" points="63,15.017181396484375 63,15.017181396484375 " fill="none"/>
  <text style="cursor: move;" transform="matrix(0.916881 0 0 1 30.1928 0)" stroke="#000" xml:space="preserve" text-anchor="start" font-family="Noto Sans JP" font-size="24" stroke-width="0" id="svg_28" y="25.01718" x="8.51499" fill="#000000">Gbyte | 乐数科技</text>
  <ellipse ry="15" rx="15" id="svg_29" cy="17.01718" cx="15" stroke-width="0" stroke="#000" fill="#84D3DB"/>
  <ellipse stroke="#000" id="svg_30" cy="17.01718" cx="16" stroke-width="0" fill="#000000"/>
  <text xml:space="preserve" text-anchor="start" font-family="Noto Sans JP" font-size="24" id="svg_31" y="25.01718" x="6" stroke-width="0" stroke="#000" fill="#000000">G</text>
  <polyline stroke="#000" stroke-linecap="round" id="svg_32" points="63,15.017181396484375 63,15.017181396484375 " fill="none"/>
  <text style="cursor: move;" transform="matrix(0.916881 0 0 1 30.1928 0)" stroke="#000" xml:space="preserve" text-anchor="start" font-family="Noto Sans JP" font-size="24" stroke-width="0" id="svg_33" y="25.01718" x="8.51499" fill="#000000">Gbyte | 乐数科技</text>
  <ellipse ry="15" rx="15" id="svg_34" cy="17.01718" cx="15" stroke-width="0" stroke="#000" fill="#84D3DB"/>
  <ellipse stroke="#000" id="svg_35" cy="17.01718" cx="16" stroke-width="0" fill="#000000"/>
  <text xml:space="preserve" text-anchor="start" font-family="Noto Sans JP" font-size="24" id="svg_36" y="25.01718" x="6" stroke-width="0" stroke="#000" fill="#000000">G</text>
  <polyline stroke="#000" stroke-linecap="round" id="svg_37" points="63,15.017181396484375 63,15.017181396484375 " fill="none"/>
  <text style="cursor: move;" transform="matrix(0.916881 0 0 1 30.1928 0)" stroke="#000" xml:space="preserve" text-anchor="start" font-family="Noto Sans JP" font-size="24" stroke-width="0" id="svg_38" y="25.01718" x="8.51499" fill="#000000">Gbyte | 乐数科技</text>
  <ellipse ry="15" rx="15" id="svg_39" cy="17.01718" cx="15" stroke-width="0" stroke="#000" fill="#84D3DB"/>
  <ellipse stroke="#000" id="svg_40" cy="17.01718" cx="16" stroke-width="0" fill="#000000"/>
  <ellipse id="svg_41" cy="19.01718" cx="9" stroke-width="0" stroke="#000" fill="#000000"/>
  <text xml:space="preserve" text-anchor="start" font-family="Noto Sans JP" font-size="24" id="svg_42" y="25.01718" x="6" stroke-width="0" stroke="#000" fill="#000000">G</text>
  <polyline stroke="#000" stroke-linecap="round" id="svg_43" points="63,15.017181396484375 63,15.017181396484375 " fill="none"/>
  <text style="cursor: move;" transform="matrix(0.916881 0 0 1 30.1928 0)" stroke="#000" xml:space="preserve" text-anchor="start" font-family="Noto Sans JP" font-size="24" stroke-width="0" id="svg_44" y="25.01718" x="8.51499" fill="#000000">Gbyte | 乐数科技</text>
  <ellipse ry="15" rx="15" id="svg_45" cy="17.01718" cx="15" stroke-width="0" stroke="#000" fill="#84D3DB"/>
  <ellipse stroke="#000" id="svg_46" cy="17.01718" cx="16" stroke-width="0" fill="#000000"/>
  <text xml:space="preserve" text-anchor="start" font-family="Noto Sans JP" font-size="24" id="svg_47" y="25.01718" x="6" stroke-width="0" stroke="#000" fill="#000000">G</text>
  <polyline stroke="#000" stroke-linecap="round" id="svg_48" points="63,15.017181396484375 63,15.017181396484375 " fill="none"/>
  <text style="cursor: move;" transform="matrix(0.916881 0 0 1 30.1928 0)" stroke="#000" xml:space="preserve" text-anchor="start" font-family="Noto Sans JP" font-size="24" stroke-width="0" id="svg_49" y="25.01718" x="8.51499" fill="#000000">Gbyte | 乐数科技</text>
  <ellipse ry="15" rx="15" id="svg_50" cy="17.01718" cx="15" stroke-width="0" stroke="#000" fill="#84D3DB"/>
  <ellipse stroke="#000" id="svg_51" cy="17.01718" cx="16" stroke-width="0" fill="#000000"/>
  <text xml:space="preserve" text-anchor="start" font-family="Noto Sans JP" font-size="24" id="svg_52" y="25.01718" x="6" stroke-width="0" stroke="#000" fill="#000000">G</text>
 </g>
</svg>