<svg width="186" height="32" viewBox="0 0 186 32" xmlns="http://www.w3.org/2000/svg">
    <path  fill="url(#paint0_linear)" d="M17 0C15.8409 0 15.0682 0.571429 14.5852 1.42857L0.193182 29.9048C0.0965909 30.0952 0 30.2857 0 30.5714C0 31.3333 0.579545 32 1.35227 32H2.99432C4.53977 32 5.98864 31.1429 6.66477 29.7143L13.3295 16.381C14.875 16.381 16.0341 17.619 16.0341 19.2381C16.0341 19.7143 15.7443 20.0952 15.6477 20.4762L15.0682 21.5238C14.9716 21.7143 14.875 21.9048 14.875 22.1905C14.875 22.9524 15.5511 23.619 16.3239 23.619H21.5398C22.1193 23.619 22.6989 24.1905 22.6989 24.8571C22.6989 25.0476 22.6023 25.4286 22.5057 25.5238C21.0568 28.2857 20.3807 29.7143 20.2841 29.9048C20.2841 30.1905 20.2841 30.381 20.2841 30.5714C20.2841 31.3333 20.9602 32 21.733 32H32.6477C32.8409 32 33.0341 31.9048 33.2273 31.8095C33.7102 31.5238 34 30.9524 34 30.5714C34 30.381 34 30.0952 33.8068 29.9048L19.4148 1.42857C18.9318 0.571429 18.0625 0 17 0Z"></path>
    <path  fill="#000719" d="M86.3619 19.9229C86.3619 21.5371 85.7566 22.8487 84.5459 23.8576C83.3352 24.7656 81.721 25.27 79.6023 25.27C77.4836 25.27 75.7684 24.9674 74.4569 24.2611V21.3353C75.264 21.7389 76.172 22.0415 77.1809 22.2433C78.0889 22.4451 78.9969 22.546 79.9049 22.546C81.1156 22.546 82.0236 22.3442 82.629 21.8398C83.2343 21.3353 83.537 20.73 83.537 20.0237C83.537 19.3175 83.2343 18.7122 82.7299 18.2077C82.2254 17.7033 81.1156 17.0979 79.5014 16.4926C77.7862 15.7864 76.5756 14.9792 75.8693 14.1721C75.1631 13.2641 74.8604 12.2552 74.8604 10.9436C74.8604 9.43027 75.3649 8.11869 76.4747 7.31157C77.5845 6.40356 79.0978 6 80.9138 6C82.7299 6 84.445 6.40356 86.261 7.21068L85.2521 9.73294C83.6379 9.02671 82.1245 8.72404 80.813 8.72404C79.804 8.72404 79.0978 8.92582 78.5934 9.32938C78.0889 9.73294 77.7862 10.3383 77.7862 11.0445C77.7862 11.549 77.8871 11.9525 78.0889 12.2552C78.2907 12.5579 78.5934 12.9614 79.0978 13.2641C79.6023 13.5668 80.4094 13.9703 81.6201 14.4748C83.0325 15.0801 84.0414 15.5846 84.6468 16.089C85.2521 16.5935 85.7566 17.0979 86.0592 17.8042C86.261 18.4095 86.3619 19.1157 86.3619 19.9229ZM64.6705 25.0683H61.6438V6.30267H72.1364V8.92582H64.6705V14.7774H71.7328V17.4006H64.6705V25.0683ZM53.2699 17.1988L51.5548 12.1543C51.4539 11.8516 51.2521 11.2463 51.0503 10.5401C50.8486 9.83383 50.6468 9.22849 50.5459 8.92582C50.3441 9.93472 49.9405 11.1454 49.537 12.3561L47.8219 17.1988H53.2699ZM55.994 25.0683L54.1779 19.9229H47.0147L45.1987 25.0683H41.9702L48.9316 6.30267H52.261L59.2224 25.0683H55.994ZM93.5251 25.3709H95.1394V6.40356H93.5251V25.3709ZM176.86 16.089C177.365 17.6024 178.172 18.9139 179.383 20.1246C180.492 19.0148 181.4 17.6024 182.006 16.089H176.86ZM173.43 9.43027H178.071V6.70623H180.089V9.32938H184.73V11.3472H180.089V14.0712H184.024V15.9881C183.418 18.1068 182.409 19.822 180.896 21.3353C182.107 22.2433 183.62 22.9496 185.335 23.6558L184.225 25.3709C182.309 24.5638 180.694 23.5549 179.383 22.546C177.869 23.6558 176.053 24.6647 173.834 25.3709L172.825 23.5549C174.742 22.9496 176.457 22.1424 177.869 21.1335C176.356 19.6202 175.347 17.8042 174.742 15.8872H173.733V13.8694H177.97V11.4481H173.329V9.43027H173.43ZM168.991 25.1691H167.276L166.872 23.1513C167.377 23.2522 167.881 23.2522 168.386 23.2522C168.789 23.2522 169.092 22.9496 169.092 22.4451V18.4095C168.386 18.7122 167.679 18.9139 166.973 19.1157L166.469 16.997C167.377 16.7953 168.184 16.4926 169.092 16.2908V12.2552H166.872V10.2374H169.092V6.70623H171.11V10.1365H173.027V12.1543H171.11V15.4837C171.715 15.181 172.421 14.8783 173.027 14.4748V16.5935C172.421 16.8961 171.715 17.2997 171.11 17.6024V23.0504C171.009 24.4629 170.303 25.1691 168.991 25.1691ZM145.282 11.9525H148.409V9.53116C147.501 9.63205 146.694 9.73294 145.685 9.83383L145.282 7.81602C147.905 7.61424 150.225 7.21068 152.243 6.60534L152.949 8.62315C152.142 8.82493 151.335 9.02671 150.427 9.22849V11.8516H152.949V13.8694H150.427V14.5757C151.436 15.3828 152.546 16.2908 153.656 17.2997L152.445 19.1157C151.638 18.1068 151.033 17.2997 150.427 16.6944V25.3709H148.309V16.8961C147.602 18.6113 146.593 20.2255 145.484 21.638L144.576 19.2166C146.19 17.7033 147.3 15.8872 148.107 13.9703H145.282V11.9525ZM155.169 12.457C156.582 13.4659 157.691 14.4748 158.7 15.4837L157.187 16.997C156.38 16.089 155.169 14.9792 153.656 13.9703L155.169 12.457ZM155.774 7.81602C157.086 8.82493 158.297 9.73294 159.205 10.7418L157.792 12.2552C156.985 11.3472 155.875 10.3383 154.362 9.32938L155.774 7.81602ZM163.341 17.4006L163.644 19.5193L161.828 19.822V25.4718H159.709V20.2255L153.656 21.1335L153.353 19.0148L159.709 18.0059V6.70623H161.828V17.6024L163.341 17.4006ZM127.021 12.7596C126.314 14.0712 125.608 15.2819 124.801 16.2908L123.389 14.5757C124.801 12.8605 126.012 10.5401 127.122 7.41246L129.139 7.91691C128.837 8.92582 128.433 9.93472 128.03 10.8427H132.166V6.60534H134.285V10.7418H140.843V12.8605H134.184V17.2997H141.852V19.4184H134.184V25.4718H132.065V19.4184H123.59V17.2997H132.065V12.7596H127.021ZM114.107 12.7596H116.125C116.125 14.1721 116.024 15.4837 115.923 16.6944C116.831 19.6202 118.445 21.9407 120.665 23.7567L119.151 25.4718C117.537 23.9585 116.225 22.1424 115.217 19.9229C114.51 22.1424 113.098 24.0593 110.878 25.5727L109.466 23.8576C111.383 22.546 112.694 20.9318 113.199 19.0148C113.804 17.4006 114.107 15.3828 114.107 12.7596ZM112.392 6.40356L114.51 6.70623C114.409 7.71513 114.208 8.72404 114.006 9.53116H120.16V10.8427C119.757 12.5579 119.353 14.273 118.748 15.9881L116.629 15.3828C117.133 14.273 117.537 12.9614 117.941 11.4481H113.501C112.997 13.0623 112.392 14.273 111.685 15.2819L109.97 14.0712C111.282 12.3561 112.089 9.73294 112.392 6.40356ZM106.036 12.457H108.154V15.181H110.374V17.0979H108.154V19.2166C109.062 19.0148 109.97 18.8131 110.777 18.6113V20.6291C109.97 20.8309 109.062 21.0326 108.154 21.2344V25.5727H106.036V21.638C104.825 21.8398 103.513 22.0415 102.202 22.1424L101.899 20.0237C103.311 19.822 104.724 19.7211 106.036 19.5193V17.0979H102.605L102.101 15.181C102.605 14.1721 103.11 12.8605 103.513 11.3472H101.899V9.22849H104.018C104.219 8.42137 104.421 7.51335 104.522 6.60534L106.54 6.90801C106.338 7.71513 106.237 8.42137 106.036 9.22849H110.576V11.3472H105.531C105.127 12.7596 104.724 13.9703 104.219 15.0801H105.834V12.457H106.036Z"></path>
    <defs>
        <linearGradient id="paint0_linear" x1="-3.37792" y1="4.97638" x2="28.7386" y2="35.9754" gradientUnits="userSpaceOnUse">
            <stop stop-color="#FFAC87"/>
            <stop offset="1" stop-color="#FF6D62"/>
        </linearGradient>
    </defs>
</svg>