<svg width="134" height="40" viewBox="0 0 134 40" fill="none" xmlns="http://www.w3.org/2000/svg">
<path d="M70.1806 25.3213H67.7929V28.5094H64.0267V25.3213H56.6667V22.4765L64.716 11.0483H67.7929V22.3539H70.1806V25.3213ZM64.0267 22.3539V16.8605L60.1867 22.3539H64.0267ZM72.6067 11.0483H79.376C81.296 11.0483 82.9452 11.3916 84.3237 12.0783C85.7021 12.765 86.7529 13.7623 87.4744 15.0702C88.2129 16.3781 88.5821 17.9396 88.5821 19.7543C88.5821 21.5855 88.2221 23.155 87.4991 24.4629C86.7775 25.7708 85.7267 26.7763 84.3483 27.4794C82.9698 28.1661 81.3129 28.5094 79.376 28.5094H72.6067V11.0483ZM79.1298 25.4194C82.8714 25.4194 84.7421 23.531 84.7421 19.7543C84.7421 16.0103 82.8714 14.1383 79.1298 14.1383H76.4467V25.4194H79.1298ZM91.8437 11.0483H98.6129C100.533 11.0483 102.182 11.3916 103.561 12.0783C104.939 12.765 105.99 13.7623 106.711 15.0702C107.45 16.3781 107.819 17.9396 107.819 19.7543C107.819 21.5855 107.458 23.155 106.736 24.4629C106.014 25.7708 104.964 26.7763 103.585 27.4794C102.207 28.1661 100.55 28.5094 98.6129 28.5094H91.8437V11.0483ZM98.3667 25.4194C102.108 25.4194 103.979 23.531 103.979 19.7543C103.979 16.0103 102.108 14.1383 98.3667 14.1383H95.6837V25.4194H98.3667ZM110.834 16.0757H114.551V28.5094H110.834V16.0757ZM114.674 10.239V13.7214H110.711V10.239H114.674ZM133.121 18.8715V27.4303C132.268 27.8391 131.267 28.1579 130.118 28.3868C128.985 28.6156 127.821 28.7301 126.622 28.7301C124.768 28.7301 123.161 28.3704 121.798 27.6511C120.436 26.9317 119.385 25.9017 118.647 24.561C117.925 23.2203 117.564 21.6182 117.564 19.7543C117.564 17.9396 117.925 16.3619 118.647 15.0212C119.385 13.6805 120.419 12.6505 121.748 11.9312C123.094 11.1955 124.662 10.8276 126.45 10.8276C127.714 10.8276 128.887 10.9993 129.97 11.3426C131.07 11.6859 131.973 12.1683 132.678 12.7895L131.447 15.5362C130.627 14.9476 129.831 14.5226 129.059 14.261C128.288 13.9993 127.451 13.8686 126.548 13.8686C123.168 13.8686 121.478 15.8305 121.478 19.7543C121.478 23.7599 123.242 25.7627 126.77 25.7627C127.739 25.7627 128.707 25.6401 129.674 25.3949V21.5446H126.228V18.8715H133.121Z" fill="white"/>
<path fill-rule="evenodd" clip-rule="evenodd" d="M14.144 3.68096L6.10705 11.6805C5.72878 12.0569 5.11588 12.0569 4.73788 11.6803L2.80126 9.75082C1.76768 8.72095 0 9.45044 0 10.9067V23.4371C0 24.8937 1.76768 25.623 2.80126 24.5933L18.9677 8.48667C21.234 6.22884 24.9218 6.22884 27.1878 8.48667C29.4545 10.7446 29.4545 14.4186 27.1878 16.6765L18.8895 24.9443C17.5732 26.2554 17.5575 28.372 18.8429 29.7026C20.1691 31.0756 22.4083 31.0499 23.7608 29.7026L32.0117 21.4821C36.9378 16.5744 36.9378 8.58874 32.0117 3.68096C29.5483 1.22695 26.3131 0 23.0777 0C19.8425 0 16.6071 1.22695 14.144 3.68096Z" fill="white"/>
<path fill-rule="evenodd" clip-rule="evenodd" d="M20.5473 10.2975L12.2965 18.5178C7.37023 23.4256 7.37023 31.4114 12.2965 36.319C17.2226 41.227 25.2379 41.227 30.1639 36.319L38.1987 28.3217C38.5779 27.9443 39.1924 27.9454 39.5701 28.324L41.5029 30.2623C42.5352 31.2974 44.3079 30.5692 44.3079 29.1102V27.1852V25.8897V16.5628C44.3079 15.1063 42.5407 14.3771 41.5067 15.4069L25.3402 31.5132C23.0738 33.7711 19.3864 33.7711 17.1201 31.5132C14.8536 29.2555 14.8536 25.5813 17.1201 23.3234L25.4186 15.0558C26.7349 13.7445 26.7506 11.628 25.4652 10.2975C24.805 9.6142 23.9192 9.27734 23.0287 9.27734C22.1299 9.27734 21.2267 9.62063 20.5473 10.2975Z" fill="white"/>
</svg>
