<svg width="149" height="40" viewBox="0 0 149 40" fill="none" xmlns="http://www.w3.org/2000/svg">
<path d="M5.45518 30.4864C5.58573 36.3383 7.34624 39.7681 7.46665 39.9873V40H4.51725C3.32188 40.002 2.1746 39.5294 1.32756 38.6859C0.480522 37.8424 0.00302202 36.6971 0 35.5018L0 33.1874L5.45518 30.4877V30.4864ZM75.4244 9.6074V15.2096H79.313V18.9993H75.4244V25.8538C75.4244 27.2049 76.2153 28.0288 77.138 28.0288C78.2585 28.0288 79.0494 27.139 79.0494 26.6117L80.8619 29.9731C80.8619 29.9731 79.0823 31.9503 76.2153 31.9503C73.3813 31.9503 71.2063 30.5662 71.2063 27.139V18.9993H69.1961V15.2096H71.2063V9.70626L75.4244 9.6074ZM110.982 14.946C112.663 14.946 114.244 15.4403 115.563 16.2971V15.2096H119.781V31.6867H115.563V30.5992C114.199 31.4835 112.607 31.9529 110.982 31.9503C108.727 31.9503 106.564 31.0546 104.97 29.4601C103.376 27.8656 102.48 25.7031 102.48 23.4481C102.48 21.1932 103.376 19.0307 104.97 17.4362C106.564 15.8417 108.727 14.946 110.982 14.946ZM46.5236 9.57445V18.4391H54.6963V9.57445H58.9144V31.6867H54.6963V22.6572H46.5236V31.6867H42.3055V9.57445H46.5236ZM66.8234 15.2096V31.6867H62.6053V15.2096H66.8234ZM91.539 9.57445C96.9105 9.57445 100.107 12.8699 100.107 16.9232C100.107 21.0095 96.9105 24.305 91.539 24.305H87.7493V31.6867H83.5312V9.57445H91.539ZM126.536 15.2096L130.128 25.5902L133.72 15.2096H137.411L141.003 25.5902L144.595 15.2096H148.813L143.112 31.6867H138.894L135.566 21.0754L132.237 31.6867H128.019L122.318 15.2096H126.536ZM5.76951 25.2606C5.7036 25.7334 5.64783 26.1973 5.60474 26.6498L5.59713 26.7055C5.56671 27.0173 5.54263 27.3228 5.52109 27.6244L0 30.3558V28.115L5.76951 25.2594V25.2606ZM14.8078 0C18.429 0.187585 21.5913 1.6363 21.6597 1.67559C26.4533 4.15602 29.7221 9.14351 29.7221 14.894C29.7221 21.5241 25.3684 27.1504 19.3568 29.0694C19.2756 29.0947 18.3846 29.3507 18.0018 29.4319C16.6406 27.7816 14.8649 26.2315 13.9802 24.7752C13.6614 24.3026 13.4911 23.7456 13.4909 23.1756C13.4909 22.3873 13.8116 21.675 14.3313 21.1566C14.657 20.8321 15.0588 20.5862 15.5049 20.4506C15.5113 20.4442 16.0943 20.2744 16.4023 20.1882C16.6406 20.1122 17.9549 19.6838 18.4911 19.4252C19.244 19.0627 19.7712 18.5874 19.7712 17.9549C19.7712 16.8066 18.6292 16.7306 18.3846 15.7179C18.2465 15.1437 17.9334 14.425 17.5253 13.9992C16.9105 13.349 15.9498 12.9053 14.8509 12.8559V10.288C14.8509 10.288 11.5352 11.4338 8.85579 15.8319L0 20.2174V4.49951C0 2.01527 2.02288 0 4.51725 0H14.8091H14.8078ZM111.114 18.9005C108.642 18.9005 106.83 20.8118 106.83 23.4481C106.83 26.0845 108.642 27.9958 111.114 27.9958C113.585 27.9958 115.398 26.0845 115.398 23.4481C115.398 20.8118 113.585 18.9005 111.114 18.9005ZM7.11429 19.5228C6.80898 20.3824 6.55171 21.2583 6.34367 22.1465L0 25.286V23.0451L7.11429 19.5215V19.5228ZM91.539 13.5289H87.7493V20.3175H91.539C94.1753 20.3175 95.856 18.9005 95.856 16.9232C95.856 14.946 94.1753 13.5289 91.539 13.5289ZM64.7143 7.66311C65.9666 7.66311 67.0211 8.68468 67.0211 9.93694C67.0211 11.2222 65.9666 12.2437 64.7143 12.2437C63.4621 12.2437 62.4075 11.2222 62.4075 9.93694C62.4075 8.68468 63.4621 7.66311 64.7143 7.66311Z" fill="white"/>
</svg>
