<svg width="122" height="41" viewBox="0 0 122 41" fill="none" xmlns="http://www.w3.org/2000/svg">
<path fill-rule="evenodd" clip-rule="evenodd" d="M45.403 8.5C46.2767 8.5 46.9819 9.20526 46.9819 10.0789V11.6684C46.9819 12.5421 47.7083 13.2579 48.5714 13.2579H61.2767C61.6982 13.2579 62.1025 13.4254 62.4006 13.7234C62.6987 14.0215 62.8661 14.4258 62.8661 14.8474C62.8661 15.2689 62.6987 15.6732 62.4006 15.9713C62.1025 16.2694 61.6982 16.4368 61.2767 16.4368H48.5714C47.3086 16.4341 46.0984 15.9304 45.2064 15.0365C44.3145 14.1425 43.8135 12.9313 43.8135 11.6684V10.0895C43.8135 9.20526 44.5188 8.5 45.3925 8.5H45.403ZM41.4346 22.1526C41.4346 21.2684 42.1398 20.5632 43.0135 20.5632H63.6451C64.0653 20.5632 64.4682 20.7301 64.7653 21.0272C65.0624 21.3243 65.2293 21.7272 65.2293 22.1474C65.2293 22.5675 65.0624 22.9705 64.7653 23.2676C64.4682 23.5647 64.0653 23.7316 63.6451 23.7316H43.0135C42.5948 23.7316 42.1931 23.5652 41.897 23.2691C41.6009 22.973 41.4346 22.5714 41.4346 22.1526Z" fill="white"/>
<path fill-rule="evenodd" clip-rule="evenodd" d="M53.34 5.72119C54.2136 5.72119 54.9189 6.42645 54.9189 7.30014V32.7001C54.9189 33.1203 54.752 33.5232 54.4549 33.8203C54.1578 34.1174 53.7549 34.2843 53.3347 34.2843C52.9145 34.2843 52.5116 34.1174 52.2145 33.8203C51.9174 33.5232 51.7505 33.1203 51.7505 32.7001V7.31067C51.7505 6.42645 52.4558 5.72119 53.3294 5.72119H53.34ZM69.2136 15.2475C69.2136 14.4062 69.5471 13.5992 70.141 13.0034C70.7349 12.4075 71.5408 12.0713 72.3821 12.0686H89.8452C90.6865 12.0713 91.4924 12.4075 92.0863 13.0034C92.6802 13.5992 93.0136 14.4062 93.0136 15.2475V17.6265C93.0136 18.0466 92.8467 18.4496 92.5496 18.7467C92.2525 19.0438 91.8496 19.2107 91.4294 19.2107C91.0093 19.2107 90.6063 19.0438 90.3092 18.7467C90.0121 18.4496 89.8452 18.0466 89.8452 17.6265V15.2475H72.3821V17.6265C72.3821 18.0466 72.2152 18.4496 71.9181 18.7467C71.621 19.0438 71.218 19.2107 70.7979 19.2107C70.3777 19.2107 69.9747 19.0438 69.6776 18.7467C69.3806 18.4496 69.2136 18.0466 69.2136 17.6265V15.2475Z" fill="white"/>
<path fill-rule="evenodd" clip-rule="evenodd" d="M74.8346 8.01604C75.0329 7.95054 75.2423 7.92503 75.4505 7.94099C75.6587 7.95696 75.8617 8.01407 76.0478 8.10904C76.2338 8.20401 76.3991 8.33493 76.5342 8.49423C76.6692 8.65354 76.7713 8.83805 76.8346 9.0371L77.7083 11.7424C77.7719 11.9407 77.7958 12.1497 77.7786 12.3573C77.7614 12.5649 77.7036 12.7671 77.6083 12.9523C77.513 13.1375 77.3821 13.3022 77.2232 13.4368C77.0642 13.5715 76.8803 13.6735 76.682 13.7371C76.4836 13.8007 76.2747 13.8246 76.0671 13.8074C75.8595 13.7902 75.6573 13.7324 75.472 13.6371C75.2868 13.5418 75.1222 13.4109 74.9875 13.252C74.8529 13.093 74.7508 12.9091 74.6872 12.7108L73.8136 10.016C73.7481 9.81773 73.7225 9.60839 73.7385 9.40015C73.7545 9.1919 73.8116 8.9889 73.9065 8.80288C74.0015 8.61687 74.1324 8.45154 74.2917 8.31648C74.451 8.18142 74.6356 8.0793 74.8346 8.01604ZM79.7504 7.41604C80.5714 7.10025 81.4872 7.51078 81.803 8.33183L83.0662 11.6581C83.2169 12.0504 83.2057 12.4865 83.0349 12.8704C82.8642 13.2544 82.5479 13.5548 82.1557 13.7055C81.7634 13.8563 81.3274 13.845 80.9434 13.6743C80.5594 13.5035 80.259 13.1872 80.1083 12.795L78.8451 9.45815C78.5293 8.6371 78.9399 7.72131 79.7504 7.41604Z" fill="white"/>
<path d="M87.3717 6.74208C87.5712 6.80221 87.7569 6.90123 87.9179 7.03343C88.079 7.16563 88.2123 7.32841 88.3101 7.51237C88.408 7.69633 88.4684 7.89784 88.4881 8.10528C88.5077 8.31272 88.486 8.52199 88.4244 8.72103C87.9402 10.3105 87.4033 11.8789 86.9191 13.4789C86.7977 13.8823 86.5209 14.221 86.1498 14.4204C85.7787 14.6197 85.3436 14.6635 84.9402 14.5421C84.5368 14.4206 84.1981 14.1439 83.9987 13.7728C83.7993 13.4017 83.7556 12.9665 83.877 12.5631C84.3612 10.9631 84.8981 9.38419 85.3928 7.79471C85.4529 7.59521 85.5519 7.40958 85.6841 7.24853C85.8163 7.08747 85.9791 6.95418 86.1631 6.85633C86.347 6.75847 86.5485 6.698 86.756 6.67839C86.9634 6.65879 87.1727 6.68043 87.3717 6.74208Z" fill="white"/>
<path fill-rule="evenodd" clip-rule="evenodd" d="M74.3716 18.7418C74.3716 17.8576 75.0768 17.1523 75.9505 17.1523H85.4032C86.4242 17.1523 87.1716 17.7839 87.5189 18.4787C87.8663 19.1734 87.94 20.1944 87.2558 21.0155L87.2242 21.0576L83.4979 25.005V29.5313C83.4979 32.1523 81.3505 34.2892 78.7295 34.2892H76.9821C76.5619 34.2892 76.159 34.1223 75.8619 33.8252C75.5648 33.5281 75.3979 33.1251 75.3979 32.705C75.3979 32.2848 75.5648 31.8819 75.8619 31.5848C76.159 31.2877 76.5619 31.1208 76.9821 31.1208H78.7295C79.6032 31.1208 80.319 30.3944 80.319 29.5313V23.7418L83.5505 20.3208H75.9505C75.5318 20.3208 75.1302 20.1544 74.834 19.8583C74.5379 19.5622 74.3716 19.1606 74.3716 18.7418Z" fill="white"/>
<path fill-rule="evenodd" clip-rule="evenodd" d="M70.0034 25.4052C70.0034 24.521 70.7192 23.8157 71.5824 23.8157H90.635C90.843 23.8157 91.049 23.8567 91.2413 23.9363C91.4335 24.0159 91.6081 24.1326 91.7552 24.2797C91.9023 24.4269 92.019 24.6015 92.0986 24.7937C92.1782 24.9859 92.2192 25.1919 92.2192 25.4C92.2192 25.608 92.1782 25.814 92.0986 26.0062C92.019 26.1984 91.9023 26.3731 91.7552 26.5202C91.6081 26.6673 91.4335 26.784 91.2413 26.8636C91.049 26.9432 90.843 26.9842 90.635 26.9842H71.5824C71.1636 26.9842 70.762 26.8178 70.4659 26.5217C70.1698 26.2256 70.0034 25.824 70.0034 25.4052ZM96.9824 20.0052C96.9824 19.1315 97.6982 18.4263 98.5718 18.4263H120.003C120.422 18.4263 120.824 18.5926 121.12 18.8887C121.416 19.1848 121.582 19.5865 121.582 20.0052C121.582 20.424 121.416 20.8256 121.12 21.1217C120.824 21.4178 120.422 21.5842 120.003 21.5842H98.5718C98.1531 21.5842 97.7515 21.4178 97.4554 21.1217C97.1592 20.8256 96.9929 20.424 96.9929 20.0052H96.9824Z" fill="white"/>
<path fill-rule="evenodd" clip-rule="evenodd" d="M103.898 5.72119C104.771 5.72119 105.477 6.42645 105.477 7.30014V29.4475C105.477 30.3212 106.203 31.037 107.066 31.037H109.445C109.867 31.037 110.271 31.2044 110.569 31.5025C110.867 31.8006 111.034 32.2049 111.034 32.6265C111.034 33.048 110.867 33.4523 110.569 33.7504C110.271 34.0485 109.867 34.2159 109.445 34.2159H107.066C105.803 34.2131 104.593 33.7095 103.701 32.8156C102.809 31.9216 102.308 30.7103 102.308 29.4475V7.31067C102.308 6.42645 103.013 5.72119 103.887 5.72119H103.898ZM118.14 9.32119C118.824 9.86856 118.929 10.8686 118.382 11.5528C116.226 14.2257 113.384 16.263 110.161 17.4475C109.965 17.5201 109.757 17.5534 109.549 17.5456C109.34 17.5378 109.135 17.489 108.946 17.402C108.756 17.315 108.585 17.1915 108.443 17.0386C108.302 16.8857 108.191 16.7063 108.119 16.5107C108.046 16.3151 108.013 16.1071 108.021 15.8986C108.028 15.6901 108.077 15.4852 108.164 15.2956C108.251 15.106 108.375 14.9353 108.528 14.7934C108.68 14.6515 108.86 14.5411 109.055 14.4686C111.737 13.4858 114.101 11.7941 115.898 9.57382C116.027 9.40816 116.188 9.26997 116.371 9.16736C116.555 9.06475 116.757 8.99977 116.966 8.97624C117.174 8.95271 117.386 8.9711 117.587 9.03034C117.789 9.08957 117.977 9.18845 118.14 9.32119Z" fill="white"/>
<path fill-rule="evenodd" clip-rule="evenodd" d="M109.75 19.1632C109.955 19.1186 110.166 19.1151 110.372 19.1531C110.579 19.191 110.775 19.2696 110.95 19.3842C111.126 19.4989 111.276 19.6472 111.394 19.8207C111.511 19.9942 111.593 20.1893 111.634 20.3947C112.645 25.1526 115.75 29.1316 119.94 31.2895C120.125 31.3856 120.289 31.5172 120.424 31.6768C120.558 31.8365 120.66 32.021 120.723 32.2199C120.786 32.4188 120.809 32.6282 120.791 32.8361C120.773 33.044 120.715 33.2464 120.619 33.4316C120.523 33.6168 120.391 33.7813 120.231 33.9157C120.072 34.0501 119.887 34.1517 119.688 34.2147C119.489 34.2778 119.28 34.301 119.072 34.2831C118.864 34.2653 118.662 34.2066 118.477 34.1105C115.957 32.8052 113.758 30.9575 112.038 28.7006C110.318 26.4436 109.12 23.8335 108.529 21.0579C108.483 20.8532 108.478 20.6413 108.514 20.4346C108.551 20.228 108.628 20.0307 108.742 19.8542C108.856 19.6778 109.003 19.5258 109.176 19.4072C109.35 19.2885 109.545 19.2056 109.75 19.1632Z" fill="white"/>
<path d="M29.6031 4.59474C29.6031 5.81334 29.119 6.98203 28.2573 7.84371C27.3956 8.70539 26.2269 9.18947 25.0083 9.18947C23.7897 9.18947 22.621 8.70539 21.7593 7.84371C20.8977 6.98203 20.4136 5.81334 20.4136 4.59474C20.4136 3.37614 20.8977 2.20745 21.7593 1.34577C22.621 0.484087 23.7897 0 25.0083 0C26.2269 0 27.3956 0.484087 28.2573 1.34577C29.119 2.20745 29.6031 3.37614 29.6031 4.59474Z" fill="white"/>
<path d="M9.28763 4.64748C9.28763 2.08371 7.20929 0.00537109 4.64552 0.00537109C2.08176 0.00537109 0.00341797 2.08371 0.00341797 4.64748V35.3633C0.00341797 37.927 2.08176 40.0054 4.64552 40.0054C7.20929 40.0054 9.28763 37.927 9.28763 35.3633V4.64748Z" fill="white"/>
<path d="M23.161 39.4892C23.8852 39.8611 24.6947 40.0355 25.5078 39.9948C26.321 39.9542 27.109 39.6999 27.7926 39.2576C28.4419 38.8338 28.9774 38.257 29.3518 37.5779C29.7262 36.8989 29.9281 36.1383 29.9399 35.3629V17.4576L20.6031 10.626C16.2136 7.29973 10.4241 2.76289 7.01361 0.615518C6.23641 0.169663 5.34679 -0.0417386 4.45209 0.00682499C3.5574 0.0553886 2.69589 0.361842 1.97151 0.889202C1.33603 1.36344 0.824995 1.98465 0.482171 2.69963C0.139347 3.41461 -0.0250414 4.20204 0.00308808 4.99446V22.0471L23.161 39.4892Z" fill="white"/>
<path fill-rule="evenodd" clip-rule="evenodd" d="M9.2873 29.0583V4.63726C9.28235 3.78939 9.04475 2.95914 8.6004 2.23702C8.15604 1.51489 7.52199 0.928601 6.76734 0.542048C6.01269 0.155495 5.16641 -0.0164854 4.32075 0.0448514C3.47508 0.106188 2.66248 0.398489 1.97151 0.889893C1.33603 1.36413 0.824995 1.98534 0.482171 2.70032C0.139347 3.4153 -0.0250414 4.20273 0.00308808 4.99516V22.0478L9.2873 29.0478V29.0583Z" fill="white"/>
</svg>
