<svg width="183" height="40" viewBox="0 0 183 40" fill="none" xmlns="http://www.w3.org/2000/svg">
<path d="M4.8 19.2C4.60752 28.2122 12.5822 35.3846 19.2 35.2C25.8177 35.3846 33.7925 28.2122 33.6 19.2C33.7925 17.2465 32.4661 16.0925 30.4 16H25.6C20.0174 16.0925 16.5078 12.8064 16 8C16.5168 3.24711 19.9299 0 25.6 0H36.8V4.8H25.6C22.4221 4.61539 21.1217 5.85248 20.8 8C21.1177 10.1867 22.4959 11.4771 25.6 11.2H30.4C34.8779 11.4771 38.4 14.5416 38.4 19.2C38.4 30.8788 28.2584 40 19.2 40C10.1416 40 0 30.8788 0 19.2V0H14.4V4.8H4.8V19.2ZM9.6 20.8H14.4C14.0304 23.7256 16.4344 25.9692 19.2 25.6C21.9656 25.9692 24.3696 23.7256 24 20.8H28.8C28.8 26.2436 24.3466 30.4 19.2 30.4C14.0534 30.4 9.6 26.2436 9.6 20.8Z" fill="white"/>
<path fill-rule="evenodd" clip-rule="evenodd" d="M55.8447 13.3078V30H59.5369V13.3078H64.6139V10H50.7678V13.3078H55.8447ZM139.999 15.9231C143.921 15.9231 144.767 19.1539 144.767 22.0769V30H141.152V21.6154C141.152 20.0769 140.075 19.1539 138.845 19.1539C137.306 19.1539 136.384 20.2307 136.384 21.7692V30H132.691V10H136.306V17.8461C136.921 16.9231 138.23 15.9231 139.999 15.9231ZM102.076 15.6152C97.9223 15.6152 94.6916 18.6921 94.6916 22.846C94.6916 26.9999 97.7686 29.9999 102.076 29.9999C106.384 29.9999 109.461 26.9999 109.461 22.846C109.461 18.6921 106.307 15.6152 102.076 15.6152ZM102.076 26.846C99.9223 26.846 98.3069 25.1538 98.3069 22.846C98.3069 20.4614 99.9223 18.7691 102.076 18.7691C104.23 18.7691 105.845 20.5382 105.845 22.846C105.845 25.2306 104.23 26.846 102.076 26.846ZM93.1532 22.0767C93.1532 19.1536 92.3071 15.9229 88.3839 15.9229C86.6147 15.9229 85.3071 16.9229 84.6917 17.8459V15.9229H81.1532V29.9998H84.7686V21.769C84.7686 20.2305 85.7686 19.1536 87.2301 19.1536C88.4608 19.1536 89.5378 20.0768 89.5378 21.6151V29.9998H93.1532V22.0767ZM169.384 22.846C169.384 18.6921 172.23 15.6152 176.152 15.6152C180.384 15.6152 182.845 18.4614 182.845 22.9229V23.6921H173.152C173.23 25.5382 174.691 26.846 176.769 26.846C178.615 26.846 179.691 25.7691 180.076 25.1537L182.461 26.9999C181.922 27.9999 180.076 29.9999 176.691 29.9999C172.23 29.9999 169.384 26.9229 169.384 22.846ZM173.23 21.3075H179.152C179.076 19.6152 177.845 18.5382 176.23 18.5382C174.461 18.5382 173.384 19.7691 173.23 21.3075ZM151.615 20.846C148.461 20.846 146.307 22.6921 146.307 25.3845C146.307 28.3075 148.691 29.9999 151.461 29.9999C152.999 29.9999 154.076 29.5383 154.769 28.7691L154.999 29.9999H158.23V20.9999C158.23 17.9229 156.845 15.6152 152.461 15.6152C150.384 15.6152 148.307 16.3845 147.076 17.2306L148.461 19.6921C149.537 19.1538 150.769 18.6921 152.152 18.6921C153.691 18.6921 154.615 19.4614 154.615 20.6921V21.6152C154.076 21.2306 152.999 20.846 151.615 20.846ZM152.384 27.2306C150.999 27.2306 149.999 26.4614 149.999 25.3075C149.999 24.1538 150.922 23.3845 152.384 23.3845C153.769 23.3845 154.769 24.0768 154.769 25.3075C154.769 26.4614 153.769 27.2306 152.384 27.2306ZM120.615 27.4615C121.384 28.6154 123.076 30 125.769 30C128.769 30 131.076 28.3076 131.154 25.6154C131.154 22.6523 128.785 21.8348 126.899 21.184C125.651 20.7535 124.615 20.3959 124.615 19.5384C124.615 18.8461 125.154 18.4615 126 18.4615C127.307 18.4615 128.076 19.2308 128.461 19.7691L130.845 18C130.23 16.923 128.769 15.5384 126.154 15.5384C123.307 15.5384 121.153 17.0769 121.153 19.6154C121.153 22.5441 123.513 23.422 125.381 24.1165C126.604 24.5712 127.615 24.9475 127.615 25.7691C127.615 26.5384 126.922 27 125.922 27C124.384 27 123.461 26.3076 122.769 25.5384L120.615 27.4615ZM119.076 15.5384V19.2307C116.384 19.2307 115.384 20.923 115.384 23.6154V30H111.768V15.5384H115.307V17.8461C115.922 16.5384 117.23 15.5384 119.076 15.5384ZM167.845 19.2307V15.5384C165.999 15.5384 164.691 16.5384 164.076 17.8461V15.5384H160.537V30H164.152V23.6154C164.152 20.923 165.152 19.2307 167.845 19.2307ZM66.1532 22.846C66.1532 18.6921 68.9993 15.6152 72.9224 15.6152C77.1532 15.6152 79.6147 18.4614 79.6147 22.9229V23.6921H69.8454C69.9224 25.5382 71.3839 26.846 73.4608 26.846C75.3071 26.846 76.3839 25.7691 76.7686 25.1537L79.1532 26.9999C78.6147 27.9999 76.7686 29.9999 73.3839 29.9999C68.9224 29.9999 66.1532 26.9229 66.1532 22.846ZM69.9224 21.3075H75.8454C75.7686 19.6152 74.5378 18.5382 72.9224 18.5382C71.2301 18.5382 70.0763 19.7691 69.9224 21.3075Z" fill="white"/>
</svg>
