<svg width="30" height="30" viewBox="0 0 30 30" fill="none" xmlns="http://www.w3.org/2000/svg">
<path fill-rule="evenodd" clip-rule="evenodd" d="M1 6.42293C1.0004 3.42786 3.50739 1 6.59986 1C9.69258 1 12.1997 3.42825 12.1997 6.42364C12.1997 8.67216 10.787 10.6011 8.7743 11.4232C11.2003 15.3059 14.4853 18.6265 18.3953 21.1412C19.3163 19.3683 21.2118 18.152 23.4007 18.152C26.4934 18.152 29.0005 20.5802 29.0005 23.5756C29.0005 26.571 26.4934 28.9993 23.4007 28.9993C23.1116 28.9993 22.8276 28.9781 22.5504 28.9372V28.9399C22.5424 28.9378 22.5344 28.9357 22.5264 28.9336C22.0234 28.8572 21.5426 28.7159 21.0934 28.519C11.5966 25.5196 4.29098 18.1233 1.59245 8.85425C1.21339 8.12312 1 7.29752 1 6.42364C1 6.42341 1 6.42317 1 6.42293Z" fill="#2C2C2C"/>
</svg>
