<svg width="30" height="30" viewBox="0 0 30 30" fill="none" xmlns="http://www.w3.org/2000/svg">
<g id="GPS">
<path id="Subtract" fill-rule="evenodd" clip-rule="evenodd" d="M3 13.0413C3 6.40184 8.3828 1 14.9996 1C21.6167 1 27 6.40184 27 13.0413C27 20.4311 20.2126 25.845 17.2707 28.1915C16.671 28.6699 16.2311 29.0208 16.0411 29.2349C15.7767 29.5336 15.3978 29.7044 14.9997 29.7044C14.6016 29.7044 14.2227 29.5336 13.9584 29.2349C13.7684 29.0206 13.3283 28.6696 12.7283 28.1909C9.78623 25.8441 3 20.4307 3 13.0413ZM10.7774 13.2935C10.7774 15.5547 12.6158 17.3942 14.8748 17.3942C17.1345 17.3942 18.9726 15.5547 18.9725 13.2935C18.9725 11.0325 17.1345 9.19296 14.8748 9.19296C12.6158 9.19296 10.7774 11.0325 10.7774 13.2935Z" fill="#2C2C2C"/>
</g>
</svg>
