<svg width="30" height="30" viewBox="0 0 30 30" fill="none" xmlns="http://www.w3.org/2000/svg">
<path d="M3.50005 21.4891C3.49711 22.0749 3.62493 22.654 3.8742 23.1841C4.12347 23.7142 4.4879 24.1821 4.94093 24.5535V27.0294C4.93486 27.2181 4.96835 27.4059 5.03925 27.5809C5.11016 27.7559 5.2169 27.9141 5.35261 28.0454C5.48832 28.1766 5.65001 28.278 5.82726 28.343C6.00451 28.4081 6.19341 28.4353 6.38181 28.4229H7.82269C8.00999 28.4333 8.1974 28.4046 8.37304 28.3387C8.54867 28.2728 8.70868 28.1711 8.84291 28.0401C8.97713 27.9091 9.08264 27.7515 9.15273 27.5775C9.22282 27.4035 9.25595 27.2169 9.25004 27.0294V25.6764H20.75V27.0294C20.7439 27.2181 20.7774 27.4059 20.8483 27.5809C20.9192 27.7559 21.026 27.9141 21.1617 28.0454C21.2974 28.1766 21.4591 28.278 21.6363 28.343C21.8136 28.4081 22.0025 28.4353 22.1909 28.4229H23.6318C23.8196 28.4343 24.0078 28.4063 24.1842 28.3409C24.3607 28.2754 24.5215 28.1739 24.6565 28.0427C24.7914 27.9116 24.8976 27.7537 24.9681 27.5792C25.0386 27.4047 25.0719 27.2175 25.0659 27.0294V24.5264C25.5141 24.1572 25.8752 23.6935 26.1231 23.1684C26.371 22.6432 26.4998 22.0698 26.5 21.4891V7.56734C26.5 2.67647 21.325 2 15 2C8.67504 2 3.50005 2.67647 3.50005 7.56734V21.4891ZM8.38416 22.7C7.84592 22.7 7.32974 22.4861 6.94915 22.1056C6.56856 21.725 6.35475 21.2088 6.35475 20.6705C6.35475 20.1323 6.56856 19.6161 6.94915 19.2355C7.32974 18.855 7.84592 18.6411 8.38416 18.6411C8.92239 18.6411 9.43858 18.855 9.81916 19.2355C10.1998 19.6161 10.4136 20.1323 10.4136 20.6705C10.4136 21.2088 10.1998 21.725 9.81916 22.1056C9.43858 22.4861 8.92239 22.7 8.38416 22.7ZM21.9135 22.7C21.343 22.7212 20.7862 22.5225 20.3581 22.1447C19.93 21.767 19.6635 21.2393 19.6135 20.6705C19.6878 20.1131 19.9619 19.6016 20.3849 19.2312C20.808 18.8607 21.3512 18.6565 21.9135 18.6565C22.4759 18.6565 23.0191 18.8607 23.4421 19.2312C23.8652 19.6016 24.1393 20.1131 24.2135 20.6705C24.1635 21.2417 23.8951 21.7715 23.4641 22.1496C23.0331 22.5276 22.4728 22.7248 21.9 22.7H21.9135ZM23.6385 14.65H6.37504V7.74999H23.625L23.6385 14.65Z" fill="#2C2C2C"/>
</svg>
