<svg width="39" height="22" viewBox="0 0 39 22" fill="none" xmlns="http://www.w3.org/2000/svg">
<path fill-rule="evenodd" clip-rule="evenodd" d="M9.89949 0.707103C9.50865 1.09795 9.509 1.73082 9.89949 2.12132L18.3848 10.6066L9.89949 19.0919C9.50865 19.4827 9.509 20.1156 9.89949 20.5061C10.29 20.8966 10.9229 20.8969 11.3137 20.5061L20.5061 11.3137C20.8969 10.9229 20.8966 10.29 20.5061 9.89949L11.3137 0.707103C11.1354 0.528773 10.9068 0.431407 10.6732 0.416043C10.3955 0.397917 10.1115 0.495109 9.89949 0.707103Z" fill="#7086FF"/>
<path fill-rule="evenodd" clip-rule="evenodd" d="M26.8995 0.707103C26.509 1.09763 26.509 1.73079 26.8995 2.12132L35.3848 10.6066L26.8995 19.0919C26.509 19.4824 26.509 20.1156 26.8995 20.5061C27.29 20.8966 27.9232 20.8966 28.3137 20.5061L37.5061 11.3137C37.8966 10.9232 37.8966 10.29 37.5061 9.89949L28.3137 0.707103C27.9232 0.316579 27.29 0.316579 26.8995 0.707103Z" fill="#3857FF"/>
</svg>
