<svg width="116" height="79" viewBox="0 0 116 79" fill="none" xmlns="http://www.w3.org/2000/svg">
<ellipse cx="14.5" cy="71.7446" rx="14.5" ry="6.5" fill="url(#paint0_radial_66_391)" fill-opacity="0.2"/>
<ellipse cx="14.5" cy="71.2446" rx="8.5" ry="4" fill="url(#paint1_radial_66_391)"/>
<path d="M16 46.5005V9.00025C23.5 9.00004 67 8.99999 116 9L107.5 28.5002C110 34.0002 113 41.0002 116 46.5005L16 46.5005Z" fill="url(#paint2_linear_66_391)"/>
<path d="M46.8308 15.3682C47.9213 15.3682 48.8052 16.2536 48.8052 17.3459C48.8052 17.4212 48.801 17.4954 48.7929 17.5685L48.7929 21.2323C49.3174 20.7613 49.9097 20.3989 50.5698 20.1453C51.23 19.8917 51.9579 19.7558 52.7537 19.7377H52.8622C54.1463 19.7377 55.3219 20.0638 56.389 20.716C57.4561 21.3682 58.3016 22.2649 58.9256 23.4063C59.5495 24.5476 59.8615 25.8067 59.8615 27.1836C59.8615 28.5242 59.5586 29.7607 58.9527 30.893C58.3468 32.0253 57.5013 32.9266 56.4161 33.5969C55.331 34.2672 54.1102 34.6024 52.7537 34.6024C51.9579 34.6024 51.23 34.4801 50.5698 34.2355C49.9097 33.9909 49.3174 33.6422 48.7929 33.1893L48.6876 33.087C48.4124 33.8474 47.6849 34.3906 46.8308 34.3906C45.7404 34.3906 44.8564 33.5052 44.8564 32.4129C44.8564 32.3779 44.8574 32.3432 44.8591 32.3087V17.4501C44.8574 17.4156 44.8564 17.3808 44.8564 17.3459C44.8564 16.2536 45.7404 15.3682 46.8308 15.3682ZM52.3739 23.2976C51.6866 23.2976 51.0491 23.4788 50.4613 23.8411C49.8735 24.2034 49.4033 24.6835 49.0506 25.2814C48.6979 25.8792 48.5216 26.5133 48.5216 27.1836C48.5216 27.8539 48.7024 28.488 49.0642 29.0859C49.4078 29.6837 49.8735 30.1593 50.4613 30.5125C51.0491 30.8658 51.6866 31.0424 52.3739 31.0424C53.0612 31.0424 53.6987 30.8658 54.2865 30.5125C54.8743 30.1593 55.34 29.6837 55.6837 29.0859C56.0273 28.488 56.1991 27.8539 56.1991 27.1836C56.1991 26.4952 56.0273 25.8566 55.6837 25.2678C55.34 24.679 54.8743 24.2034 54.2865 23.8411C53.6987 23.4788 53.0612 23.2976 52.3739 23.2976Z" fill="white"/>
<path d="M73.0533 19.3838C74.1271 19.3838 74.9976 20.2557 74.9976 21.3313C74.9976 21.6659 74.9134 21.9807 74.765 22.2557L67.8794 39.6754C67.6357 40.4435 66.9181 40.9999 66.0706 40.9999C65.0226 40.9999 64.1731 40.149 64.1731 39.0992C64.1731 38.8022 64.2411 38.521 64.3624 38.2706L65.9244 34.3032L60.9028 22.1433L60.9062 22.142C60.7879 21.8916 60.7217 21.6116 60.7217 21.3162C60.7217 20.249 61.5854 19.3838 62.6509 19.3838C63.5569 19.3838 64.317 20.0094 64.5242 20.8529L67.932 29.6835L71.1715 20.84C71.3889 20.0023 72.149 19.3838 73.0533 19.3838Z" fill="white"/>
<path d="M81.1337 20.4441H83.7718C84.7023 20.4441 85.4566 21.1984 85.4566 22.129C85.4566 23.0595 84.7023 23.8138 83.7718 23.8138H81.1337V29.4118C81.1337 30.0278 81.2784 30.4717 81.5678 30.7434C81.8572 31.0152 82.3274 31.151 82.9785 31.151H83.8397C84.7327 31.151 85.4566 31.875 85.4566 32.768C85.4566 33.6609 84.7327 34.3849 83.8397 34.3849H82.7072C79.1443 34.3849 77.3628 32.7906 77.3628 29.6021V18.99C77.3628 17.9486 78.2069 17.1045 79.2483 17.1045C80.2896 17.1045 81.1337 17.9486 81.1337 18.99V20.4441Z" fill="white"/>
<path d="M93.8848 20.0071C94.9428 20.0071 96.028 20.2517 97.086 20.768C98.144 21.2843 99.0393 22.0996 99.7447 23.1865C100.441 24.2601 100.794 25.5988 100.803 27.1763L100.803 27.2356C100.803 28.0611 100.134 28.7302 99.3081 28.7302H90.5208C90.7378 29.5998 91.199 30.252 91.8772 30.714C92.5555 31.176 93.3422 31.3934 94.2917 31.3934C95.0785 31.3934 95.7024 31.3119 96.1365 31.176C96.5001 31.0546 96.972 30.8464 97.5328 30.5514C97.7809 30.3795 98.0819 30.2788 98.4063 30.2788C99.2553 30.2788 99.9436 30.9683 99.9436 31.8187C99.9436 32.2912 99.7312 32.7139 99.3969 32.9964C99.3975 32.9973 99.3981 32.9982 99.3987 32.9991L99.3621 33.0249C99.3096 33.0667 99.2543 33.1052 99.1965 33.1399C98.4943 33.6233 97.9355 33.9469 97.5201 34.1109C96.5977 34.4913 95.4854 34.6816 94.1561 34.6816C92.9353 34.6816 91.7416 34.4098 90.6022 33.8391C89.4356 33.2956 88.5132 32.4804 87.7807 31.3662C87.0483 30.252 86.6685 28.9476 86.6685 27.3987C86.6685 25.8497 87.0483 24.4909 87.7807 23.3768C88.5132 22.2626 89.4356 21.4202 90.5479 20.8495C91.6602 20.2788 92.7725 20.0071 93.8848 20.0071ZM93.8848 23.3224C93.1523 23.3224 92.4741 23.5398 91.8501 24.0018C91.2261 24.4638 90.7921 25.116 90.5479 25.9584H97.1945C97.0589 25.116 96.6519 24.4638 96.0008 24.0018C95.3497 23.5398 94.6444 23.3224 93.8848 23.3224Z" fill="white"/>
<path d="M31.9315 15C33.9104 15 35.6812 15.518 37.244 16.554C37.6462 16.8206 38.023 17.1111 38.3743 17.4255L38.3725 17.4275C38.8135 17.7939 39.0944 18.3469 39.0944 18.9656C39.0944 20.0688 38.2017 20.963 37.1004 20.963C36.5367 20.963 36.0275 20.7286 35.6648 20.3518C35.4106 20.1238 35.1172 19.9072 34.8166 19.7313C33.9474 19.2225 32.9857 18.9682 31.9315 18.9682C30.8403 18.9682 29.8555 19.2318 28.977 19.759C28.0985 20.2863 27.4096 21.0077 26.9103 21.9235C26.4109 22.8392 26.1612 23.8428 26.1612 24.9343C26.1612 26.0258 26.4109 27.0247 26.9103 27.9312C27.4096 28.8377 28.0985 29.5546 28.977 30.0818C29.8555 30.609 30.8403 30.8727 31.9315 30.8727C32.7082 30.8727 33.448 30.7385 34.1508 30.4703C34.8536 30.2021 35.4778 29.7904 36.0234 29.2355C36.5689 28.6805 36.9897 28.0052 37.2856 27.2097C37.5815 26.4143 37.4765 25.8232 37.4765 25.0943C37.9456 25.1141 39.2321 25.181 41.3359 25.295C41.3359 27.1265 40.9244 28.7683 40.1014 30.2206C39.2784 31.6728 38.1502 32.8059 36.7169 33.6199C35.2836 34.4338 33.6884 34.8408 31.9315 34.8408C30.1375 34.8408 28.4823 34.3968 26.9657 33.5089C25.4492 32.6209 24.2424 31.4184 23.3455 29.9014C22.4485 28.3845 22 26.7288 22 24.9343C22 23.1398 22.4485 21.4841 23.3455 19.9671C24.2424 18.4502 25.4492 17.2431 26.9657 16.3458C28.4823 15.4486 30.1375 15 31.9315 15Z" fill="white"/>
<path fill-rule="evenodd" clip-rule="evenodd" d="M39.7129 22.126C41.2222 22.126 42.4457 23.3494 42.4457 24.8586C42.4457 26.3677 41.2222 27.5912 39.7129 27.5912C38.7001 27.5912 37.8159 27.0401 37.3439 26.2215L37.3432 26.2215L37.3333 26.203C37.3258 26.1898 37.3184 26.1765 37.3112 26.1632C37.0049 25.6262 36.427 25.2643 35.7646 25.2643C35.1054 25.2643 34.5299 25.6224 34.2224 26.1549C34.213 26.1724 34.2034 26.1898 34.1935 26.2071C34.1908 26.2119 34.1883 26.2167 34.1857 26.2216C33.7132 27.0402 32.8291 27.5912 31.8162 27.5912C30.307 27.5912 29.0835 26.3677 29.0835 24.8586C29.0835 23.3494 30.307 22.126 31.8162 22.126C32.8506 22.126 33.7507 22.7006 34.2147 23.5481L34.2157 23.5499C34.5216 24.0889 35.1006 24.4525 35.7646 24.4525C36.4224 24.4525 36.9969 24.0956 37.3049 23.5648L37.3103 23.5556C37.7731 22.704 38.6755 22.126 39.7129 22.126Z" fill="#467DFF"/>
<rect x="13" y="5" width="3" height="66" rx="1.5" fill="url(#paint3_linear_66_391)"/>
<circle cx="14.5" cy="3.5" r="3.5" fill="url(#paint4_radial_66_391)"/>
<defs>
<radialGradient id="paint0_radial_66_391" cx="0" cy="0" r="1" gradientUnits="userSpaceOnUse" gradientTransform="translate(14.5 70.9321) rotate(90) scale(7.3125 16.3125)">
<stop stop-color="#0E19B1"/>
<stop offset="1" stop-color="#737CFF"/>
</radialGradient>
<radialGradient id="paint1_radial_66_391" cx="0" cy="0" r="1" gradientUnits="userSpaceOnUse" gradientTransform="translate(14.5 70.7446) rotate(90) scale(4.5 9.5625)">
<stop stop-color="#0E19B1"/>
<stop offset="1" stop-color="#737CFF"/>
</radialGradient>
<linearGradient id="paint2_linear_66_391" x1="118.5" y1="24.3462" x2="13.3446" y2="24.3462" gradientUnits="userSpaceOnUse">
<stop offset="0.293083" stop-color="#173CFF"/>
<stop offset="0.809045" stop-color="#84A6FF"/>
<stop offset="1" stop-color="#82A5FF"/>
</linearGradient>
<linearGradient id="paint3_linear_66_391" x1="16" y1="38" x2="13" y2="38" gradientUnits="userSpaceOnUse">
<stop stop-color="#3AA6E2"/>
<stop offset="1" stop-color="#82E1FF"/>
</linearGradient>
<radialGradient id="paint4_radial_66_391" cx="0" cy="0" r="1" gradientUnits="userSpaceOnUse" gradientTransform="translate(13.5 2.5) rotate(45) scale(4.94975)">
<stop stop-color="#A9E5FF"/>
<stop offset="1" stop-color="#5FC5FF"/>
</radialGradient>
</defs>
</svg>
