<svg width="116" height="79" viewBox="0 0 116 79" fill="none" xmlns="http://www.w3.org/2000/svg">
<ellipse cx="14.5" cy="71.7446" rx="14.5" ry="6.5" fill="url(#paint0_radial_66_404)" fill-opacity="0.3"/>
<ellipse cx="14.5" cy="71.2446" rx="8.5" ry="4" fill="url(#paint1_radial_66_404)"/>
<g filter="url(#filter0_i_66_404)">
<path d="M16 45.5005V9.00026C23.5 9.00005 67 8.99999 116 9L107.5 28.5002C110 34.0002 113 40.0002 116 45.5005L16 45.5005Z" fill="url(#paint2_linear_66_404)"/>
</g>
<path d="M46.8308 16.3687C47.9213 16.3687 48.8052 17.2541 48.8052 18.3464C48.8052 18.4216 48.801 18.4959 48.7929 18.569L48.7929 22.2328C49.3174 21.7618 49.9097 21.3994 50.5698 21.1458C51.23 20.8922 51.9579 20.7563 52.7537 20.7382H52.8622C54.1463 20.7382 55.3219 21.0643 56.389 21.7165C57.4561 22.3687 58.3016 23.2654 58.9256 24.4068C59.5495 25.5481 59.8615 26.8072 59.8615 28.1841C59.8615 29.5247 59.5586 30.7612 58.9527 31.8935C58.3468 33.0258 57.5013 33.9271 56.4161 34.5974C55.331 35.2677 54.1102 35.6029 52.7537 35.6029C51.9579 35.6029 51.23 35.4806 50.5698 35.236C49.9097 34.9914 49.3174 34.6427 48.7929 34.1898L48.6876 34.0875C48.4124 34.8479 47.6849 35.3911 46.8308 35.3911C45.7404 35.3911 44.8564 34.5057 44.8564 33.4134C44.8564 33.3784 44.8574 33.3437 44.8591 33.3092V18.4506C44.8574 18.4161 44.8564 18.3813 44.8564 18.3464C44.8564 17.2541 45.7404 16.3687 46.8308 16.3687ZM52.3739 24.2981C51.6866 24.2981 51.0491 24.4792 50.4613 24.8416C49.8735 25.2039 49.4033 25.684 49.0506 26.2819C48.6979 26.8797 48.5216 27.5138 48.5216 28.1841C48.5216 28.8544 48.7024 29.4885 49.0642 30.0863C49.4078 30.6842 49.8735 31.1598 50.4613 31.513C51.0491 31.8663 51.6866 32.0429 52.3739 32.0429C53.0612 32.0429 53.6987 31.8663 54.2865 31.513C54.8743 31.1598 55.34 30.6842 55.6837 30.0863C56.0273 29.4885 56.1991 28.8544 56.1991 28.1841C56.1991 27.4957 56.0273 26.8571 55.6837 26.2683C55.34 25.6795 54.8743 25.2039 54.2865 24.8416C53.6987 24.4792 53.0612 24.2981 52.3739 24.2981Z" fill="white"/>
<path d="M73.0533 20.3843C74.1271 20.3843 74.9976 21.2562 74.9976 22.3318C74.9976 22.6664 74.9134 22.9812 74.765 23.2562L67.8794 40.6759C67.6357 41.444 66.9181 42.0004 66.0706 42.0004C65.0226 42.0004 64.1731 41.1494 64.1731 40.0997C64.1731 39.8027 64.2411 39.5215 64.3624 39.2711L65.9244 35.3037L60.9028 23.1438L60.9062 23.1425C60.7879 22.8921 60.7217 22.6121 60.7217 22.3167C60.7217 21.2495 61.5854 20.3843 62.6509 20.3843C63.5569 20.3843 64.317 21.0099 64.5242 21.8534L67.932 30.684L71.1715 21.8405C71.3889 21.0027 72.149 20.3843 73.0533 20.3843Z" fill="white"/>
<path d="M81.1337 21.4446H83.7718C84.7023 21.4446 85.4566 22.1989 85.4566 23.1295C85.4566 24.06 84.7023 24.8143 83.7718 24.8143H81.1337V30.4123C81.1337 31.0283 81.2784 31.4722 81.5678 31.7439C81.8572 32.0157 82.3274 32.1515 82.9785 32.1515H83.8397C84.7327 32.1515 85.4566 32.8755 85.4566 33.7684C85.4566 34.6614 84.7327 35.3854 83.8397 35.3854H82.7072C79.1443 35.3854 77.3628 33.7911 77.3628 30.6026V19.9904C77.3628 18.9491 78.2069 18.105 79.2483 18.105C80.2896 18.105 81.1337 18.9491 81.1337 19.9904V21.4446Z" fill="white"/>
<path d="M93.8848 21.0076C94.9428 21.0076 96.028 21.2521 97.086 21.7685C98.144 22.2848 99.0393 23.1 99.7447 24.187C100.441 25.2606 100.794 26.5993 100.803 28.1768L100.803 28.2361C100.803 29.0616 100.134 29.7307 99.3081 29.7307H90.5208C90.7378 30.6003 91.199 31.2525 91.8772 31.7145C92.5555 32.1765 93.3422 32.3939 94.2917 32.3939C95.0785 32.3939 95.7024 32.3123 96.1365 32.1765C96.5001 32.0551 96.972 31.8469 97.5328 31.5519C97.7809 31.38 98.0819 31.2793 98.4063 31.2793C99.2553 31.2793 99.9436 31.9688 99.9436 32.8192C99.9436 33.2917 99.7312 33.7144 99.3969 33.9969C99.3975 33.9978 99.3981 33.9987 99.3987 33.9996L99.3621 34.0254C99.3096 34.0672 99.2543 34.1057 99.1965 34.1404C98.4943 34.6238 97.9355 34.9474 97.5201 35.1114C96.5977 35.4918 95.4854 35.682 94.1561 35.682C92.9353 35.682 91.7416 35.4103 90.6022 34.8396C89.4356 34.2961 88.5132 33.4809 87.7807 32.3667C87.0483 31.2525 86.6685 29.9481 86.6685 28.3992C86.6685 26.8502 87.0483 25.4914 87.7807 24.3773C88.5132 23.2631 89.4356 22.4207 90.5479 21.85C91.6602 21.2793 92.7725 21.0076 93.8848 21.0076ZM93.8848 24.3229C93.1523 24.3229 92.4741 24.5403 91.8501 25.0023C91.2261 25.4643 90.7921 26.1165 90.5479 26.9589H97.1945C97.0589 26.1165 96.6519 25.4643 96.0008 25.0023C95.3497 24.5403 94.6444 24.3229 93.8848 24.3229Z" fill="white"/>
<path d="M31.9315 16.0005C33.9104 16.0005 35.6812 16.5185 37.244 17.5545C37.6462 17.8211 38.023 18.1116 38.3743 18.426L38.3725 18.428C38.8135 18.7943 39.0944 19.3474 39.0944 19.9661C39.0944 21.0692 38.2017 21.9635 37.1004 21.9635C36.5367 21.9635 36.0275 21.7291 35.6648 21.3523C35.4106 21.1243 35.1172 20.9077 34.8166 20.7318C33.9474 20.223 32.9857 19.9687 31.9315 19.9687C30.8403 19.9687 29.8555 20.2323 28.977 20.7595C28.0985 21.2868 27.4096 22.0082 26.9103 22.924C26.4109 23.8397 26.1612 24.8433 26.1612 25.9348C26.1612 27.0263 26.4109 28.0252 26.9103 28.9317C27.4096 29.8382 28.0985 30.5551 28.977 31.0823C29.8555 31.6095 30.8403 31.8732 31.9315 31.8732C32.7082 31.8732 33.448 31.739 34.1508 31.4708C34.8536 31.2025 35.4778 30.7909 36.0234 30.2359C36.5689 29.681 36.9897 29.0057 37.2856 28.2102C37.5815 27.4148 37.4765 26.8237 37.4765 26.0948C37.9456 26.1146 39.2321 26.1815 41.3359 26.2955C41.3359 28.127 40.9244 29.7688 40.1014 31.221C39.2784 32.6733 38.1502 33.8064 36.7169 34.6203C35.2836 35.4343 33.6884 35.8413 31.9315 35.8413C30.1375 35.8413 28.4823 35.3973 26.9657 34.5094C25.4492 33.6214 24.2424 32.4189 23.3455 30.9019C22.4485 29.385 22 27.7292 22 25.9348C22 24.1403 22.4485 22.4846 23.3455 20.9676C24.2424 19.4507 25.4492 18.2436 26.9657 17.3463C28.4823 16.4491 30.1375 16.0005 31.9315 16.0005Z" fill="white"/>
<path fill-rule="evenodd" clip-rule="evenodd" d="M39.7129 23.1265C41.2222 23.1265 42.4457 24.3499 42.4457 25.8591C42.4457 27.3682 41.2222 28.5916 39.7129 28.5916C38.7001 28.5916 37.8159 28.0406 37.3439 27.222L37.3432 27.222L37.3333 27.2035C37.3258 27.1903 37.3184 27.177 37.3112 27.1636C37.0049 26.6267 36.427 26.2647 35.7646 26.2647C35.1054 26.2647 34.5299 26.6229 34.2224 27.1554C34.213 27.1729 34.2034 27.1903 34.1935 27.2076C34.1908 27.2123 34.1883 27.2172 34.1857 27.2221C33.7132 28.0406 32.8291 28.5916 31.8162 28.5916C30.307 28.5916 29.0835 27.3682 29.0835 25.8591C29.0835 24.3499 30.307 23.1265 31.8162 23.1265C32.8506 23.1265 33.7507 23.7011 34.2147 24.5486L34.2157 24.5504C34.5216 25.0894 35.1006 25.453 35.7646 25.453C36.4224 25.453 36.9969 25.096 37.3049 24.5653L37.3103 24.5561C37.7731 23.7045 38.6755 23.1265 39.7129 23.1265Z" fill="#467DFF"/>
<rect x="13" y="5" width="3" height="66" rx="1.5" fill="url(#paint3_linear_66_404)"/>
<circle cx="14.5" cy="3.5" r="3.5" fill="url(#paint4_radial_66_404)"/>
<defs>
<filter id="filter0_i_66_404" x="16" y="9" width="100" height="36.5005" filterUnits="userSpaceOnUse" color-interpolation-filters="sRGB">
<feFlood flood-opacity="0" result="BackgroundImageFix"/>
<feBlend mode="normal" in="SourceGraphic" in2="BackgroundImageFix" result="shape"/>
<feColorMatrix in="SourceAlpha" type="matrix" values="0 0 0 0 0 0 0 0 0 0 0 0 0 0 0 0 0 0 127 0" result="hardAlpha"/>
<feOffset dx="-1" dy="-1"/>
<feComposite in2="hardAlpha" operator="arithmetic" k2="-1" k3="1"/>
<feColorMatrix type="matrix" values="0 0 0 0 0 0 0 0 0 0.497157 0 0 0 0 0.198863 0 0 0 1 0"/>
<feBlend mode="normal" in2="shape" result="effect1_innerShadow_66_404"/>
</filter>
<radialGradient id="paint0_radial_66_404" cx="0" cy="0" r="1" gradientUnits="userSpaceOnUse" gradientTransform="translate(13.6471 71.3471) rotate(24.2101) scale(12.2911 9.17652)">
<stop stop-color="#1DCF00"/>
<stop offset="1" stop-color="#61FFA0"/>
</radialGradient>
<radialGradient id="paint1_radial_66_404" cx="0" cy="0" r="1" gradientUnits="userSpaceOnUse" gradientTransform="translate(14 71) rotate(25.2677) scale(7.26668 5.59926)">
<stop stop-color="#1DCF00"/>
<stop offset="1" stop-color="#61FFA0"/>
</radialGradient>
<linearGradient id="paint2_linear_66_404" x1="57.9559" y1="24.3462" x2="13.3446" y2="24.3462" gradientUnits="userSpaceOnUse">
<stop stop-color="#00BB34"/>
<stop offset="0.5" stop-color="#00E13F"/>
<stop offset="1" stop-color="#00D13B"/>
</linearGradient>
<linearGradient id="paint3_linear_66_404" x1="16" y1="38" x2="13" y2="38" gradientUnits="userSpaceOnUse">
<stop stop-color="#00B11C"/>
<stop offset="1" stop-color="#82FFB4"/>
</linearGradient>
<radialGradient id="paint4_radial_66_404" cx="0" cy="0" r="1" gradientUnits="userSpaceOnUse" gradientTransform="translate(13.5 2.5) rotate(45) scale(4.94975)">
<stop stop-color="#A9FFCB"/>
<stop offset="1" stop-color="#76FF5F"/>
</radialGradient>
</defs>
</svg>
